<?xml version="1.0" encoding="utf-8" standalone="no"?>
<!DOCTYPE svg PUBLIC "-//W3C//DTD SVG 1.1//EN"
  "http://www.w3.org/Graphics/SVG/1.1/DTD/svg11.dtd">
<svg xmlns:xlink="http://www.w3.org/1999/xlink" width="982.4pt" height="406.505pt" viewBox="0 0 982.4 406.505" xmlns="http://www.w3.org/2000/svg" version="1.1">
 <metadata>
  <rdf:RDF xmlns:dc="http://purl.org/dc/elements/1.1/" xmlns:cc="http://creativecommons.org/ns#" xmlns:rdf="http://www.w3.org/1999/02/22-rdf-syntax-ns#">
   <cc:Work>
    <dc:type rdf:resource="http://purl.org/dc/dcmitype/StillImage"/>
    <dc:date>2026-06-16T16:58:44.114680</dc:date>
    <dc:format>image/svg+xml</dc:format>
    <dc:creator>
     <cc:Agent>
      <dc:title>Matplotlib v3.10.8, https://matplotlib.org/</dc:title>
     </cc:Agent>
    </dc:creator>
   </cc:Work>
  </rdf:RDF>
 </metadata>
 <defs>
  <style type="text/css">*{stroke-linejoin: round; stroke-linecap: butt}</style>
 </defs>
 <g id="figure_1">
  <g id="patch_1">
   <path d="M 0 406.505 
L 982.4 406.505 
L 982.4 0 
L 0 0 
z
" style="fill: #ffffff"/>
  </g>
  <g id="axes_1">
   <g id="patch_2">
    <path d="M 297.6 203.5029 
C 318.137328 203.5029 337.836265 200.328909 352.358349 194.67996 
C 366.880433 189.031012 375.04 181.368319 375.04 173.3795 
C 375.04 165.390681 366.880433 157.727988 352.358349 152.07904 
C 337.836265 146.430091 318.137328 143.2561 297.6 143.2561 
C 277.062672 143.2561 257.363735 146.430091 242.841651 152.07904 
C 228.319567 157.727988 220.16 165.390681 220.16 173.3795 
C 220.16 181.368319 228.319567 189.031012 242.841651 194.67996 
C 257.363735 200.328909 277.062672 203.5029 297.6 203.5029 
z
" clip-path="url(#p4e8af778e0)" style="fill: #e6f0ff; stroke: #0044bb; stroke-width: 1.5; stroke-linejoin: miter"/>
   </g>
   <g id="patch_3">
    <path d="M 471.84 271.28055 
L 549.28 271.28055 
L 549.28 248.688 
L 471.84 248.688 
z
" clip-path="url(#p4e8af778e0)" style="fill: #eeeeee; stroke: #666666; stroke-linejoin: miter"/>
   </g>
   <g id="patch_4">
    <path d="M 152.4 380.477875 
L 830 380.477875 
L 830 335.292775 
L 152.4 335.292775 
z
" clip-path="url(#p4e8af778e0)" style="fill: #fff8e6; stroke: #dd7744; stroke-width: 1.2; stroke-linejoin: miter"/>
   </g>
   <g id="line2d_1">
    <path d="M 55.6 323.9965 
L 55.6 98.071 
" clip-path="url(#p4e8af778e0)" style="fill: none; stroke: #666666; stroke-width: 4; stroke-linecap: square"/>
   </g>
   <g id="line2d_2">
    <path d="M 926.8 323.9965 
L 926.8 98.071 
" clip-path="url(#p4e8af778e0)" style="fill: none; stroke: #666666; stroke-width: 4; stroke-linecap: square"/>
   </g>
   <g id="line2d_3">
    <path d="M 413.76 150.78695 
L 429.044211 195.97205 
L 444.328421 150.78695 
L 459.612632 195.97205 
L 474.896842 150.78695 
L 490.181053 195.97205 
L 505.465263 150.78695 
L 520.749474 195.97205 
L 536.033684 150.78695 
L 551.317895 195.97205 
L 566.602105 150.78695 
L 581.886316 195.97205 
L 597.170526 150.78695 
L 612.454737 195.97205 
L 627.738947 150.78695 
L 643.023158 195.97205 
L 658.307368 150.78695 
L 673.591579 195.97205 
L 688.875789 150.78695 
L 704.16 195.97205 
" clip-path="url(#p4e8af778e0)" style="fill: none; stroke: #bb5533; stroke-width: 2; stroke-linecap: square"/>
   </g>
   <g id="line2d_4">
    <path d="M 123.36 226.09545 
L 138.644211 271.28055 
L 153.928421 226.09545 
L 169.212632 271.28055 
L 184.496842 226.09545 
L 199.781053 271.28055 
L 215.065263 226.09545 
L 230.349474 271.28055 
L 245.633684 226.09545 
L 260.917895 271.28055 
L 276.202105 226.09545 
L 291.486316 271.28055 
L 306.770526 226.09545 
L 322.054737 271.28055 
L 337.338947 226.09545 
L 352.623158 271.28055 
L 367.907368 226.09545 
L 383.191579 271.28055 
L 398.475789 226.09545 
L 413.76 271.28055 
" clip-path="url(#p4e8af778e0)" style="fill: none; stroke: #339933; stroke-width: 2; stroke-linecap: square"/>
   </g>
   <g id="line2d_5">
    <path d="M 55.6 173.3795 
L 297.6 173.3795 
" clip-path="url(#p4e8af778e0)" style="fill: none; stroke: #000000; stroke-width: 1.5; stroke-linecap: square"/>
   </g>
   <g id="line2d_6">
    <path d="M 375.04 173.3795 
L 413.76 173.3795 
" clip-path="url(#p4e8af778e0)" style="fill: none; stroke: #000000; stroke-width: 1.5; stroke-linecap: square"/>
   </g>
   <g id="line2d_7">
    <path d="M 704.16 173.3795 
L 926.8 173.3795 
" clip-path="url(#p4e8af778e0)" style="fill: none; stroke: #000000; stroke-width: 1.5; stroke-linecap: square"/>
   </g>
   <g id="line2d_8">
    <path d="M 55.6 248.688 
L 123.36 248.688 
" clip-path="url(#p4e8af778e0)" style="fill: none; stroke: #000000; stroke-width: 1.5; stroke-linecap: square"/>
   </g>
   <g id="line2d_9">
    <path d="M 413.76 248.688 
L 471.84 248.688 
" clip-path="url(#p4e8af778e0)" style="fill: none; stroke: #000000; stroke-width: 1.5; stroke-linecap: square"/>
   </g>
   <g id="line2d_10">
    <path d="M 549.28 248.688 
L 926.8 248.688 
" clip-path="url(#p4e8af778e0)" style="fill: none; stroke: #000000; stroke-width: 1.5; stroke-linecap: square"/>
   </g>
   <g id="text_1">
    <text style="font-size: 10px; font-family: 'SimHei'; text-anchor: middle" x="55.6" y="79.243875" transform="rotate(-0 55.6 79.243875)">骨骼端</text>
   </g>
   <g id="text_2">
    <text style="font-size: 10px; font-family: 'SimHei'; text-anchor: middle" x="926.8" y="79.243875" transform="rotate(-0 926.8 79.243875)">肌腱端</text>
   </g>
   <g id="text_3">
    <text style="font-weight: 700; font-size: 14px; font-family: 'SimHei'; text-anchor: middle; fill: #0044bb" x="297.6" y="173.3795" transform="rotate(-0 297.6 173.3795)">CE</text>
   </g>
   <g id="patch_5">
    <path d="M 297.6 110.855514 
Q 297.6 126.057132 297.6 139.917109 
" style="fill: none; stroke: #000000; stroke-width: 1.2; stroke-linecap: round"/>
    <path d="M 299.6 135.917109 
L 297.6 139.917109 
L 295.6 135.917109 
" style="fill: none; stroke: #000000; stroke-width: 1.2; stroke-linecap: round"/>
   </g>
   <g id="text_4">
    <text style="font-size: 10px; font-family: 'SimHei'; text-anchor: middle" x="297.6" y="105.60185" transform="rotate(-0 297.6 105.60185)">激活信号 a(t)</text>
   </g>
   <g id="text_5">
    <!-- 收缩元 $a\cdot fL(\tilde{l})\cdot fV(\tilde{v})$ -->
    <g transform="translate(248.05 218.5646)">
     <text>
      <tspan x="0" y="-0.78125" style="font-size: 10px; font-family: 'SimHei'">收</tspan>
      <tspan x="10" y="-0.78125" style="font-size: 10px; font-family: 'SimHei'">缩</tspan>
      <tspan x="20" y="-0.78125" style="font-size: 10px; font-family: 'SimHei'">元</tspan>
      <tspan x="30" y="-0.78125" style="font-size: 10px; font-family: 'SimHei'"> </tspan>
      <tspan x="35" y="-0.78125" style="font-style: oblique; font-size: 10px; font-family: 'DejaVu Sans'">a</tspan>
      <tspan x="48.203125" y="-0.78125" style="font-style: oblique; font-size: 10px; font-family: 'DejaVu Sans'">f</tspan>
      <tspan x="51.723633" y="-0.78125" style="font-style: oblique; font-size: 10px; font-family: 'DejaVu Sans'">L</tspan>
      <tspan x="61.196289" y="-0.78125" style="font-style: oblique; font-size: 10px; font-family: 'DejaVu Sans'">l</tspan>
      <tspan x="74.951172" y="-0.78125" style="font-style: oblique; font-size: 10px; font-family: 'DejaVu Sans'">f</tspan>
      <tspan x="78.47168" y="-0.78125" style="font-style: oblique; font-size: 10px; font-family: 'DejaVu Sans'">V</tspan>
      <tspan x="89.213867" y="-0.78125" style="font-style: oblique; font-size: 10px; font-family: 'DejaVu Sans'">v</tspan>
      <tspan x="43.076172" y="-0.78125" style="font-size: 10px; font-family: 'DejaVu Sans'">⋅</tspan>
      <tspan x="57.294922" y="-0.78125" style="font-size: 10px; font-family: 'DejaVu Sans'">(</tspan>
      <tspan x="63.974609" y="-0.78125" style="font-size: 10px; font-family: 'DejaVu Sans'">)</tspan>
      <tspan x="65.000244" y="-3.234375" style="font-size: 10px; font-family: 'DejaVu Sans'">̃</tspan>
      <tspan x="69.824219" y="-0.78125" style="font-size: 10px; font-family: 'DejaVu Sans'">⋅</tspan>
      <tspan x="85.3125" y="-0.78125" style="font-size: 10px; font-family: 'DejaVu Sans'">(</tspan>
      <tspan x="95.131836" y="-0.78125" style="font-size: 10px; font-family: 'DejaVu Sans'">)</tspan>
      <tspan x="95.802734" y="-1.109375" style="font-size: 10px; font-family: 'DejaVu Sans'">̃</tspan>
     </text>
    </g>
   </g>
   <g id="text_6">
    <text style="font-size: 10px; font-family: 'SimHei'; text-anchor: middle" x="558.96" y="128.1944" transform="rotate(-0 558.96 128.1944)">SE 串联弹性元 (肌腱)</text>
   </g>
   <g id="text_7">
    <!-- PE 并联弹性元 $fP(\tilde{l})$ -->
    <g transform="translate(223.46 293.8731)">
     <text>
      <tspan x="0" y="-0.78125" style="font-size: 10px; font-family: 'SimHei'">P</tspan>
      <tspan x="5" y="-0.78125" style="font-size: 10px; font-family: 'SimHei'">E</tspan>
      <tspan x="10" y="-0.78125" style="font-size: 10px; font-family: 'SimHei'"> </tspan>
      <tspan x="15" y="-0.78125" style="font-size: 10px; font-family: 'SimHei'">并</tspan>
      <tspan x="25" y="-0.78125" style="font-size: 10px; font-family: 'SimHei'">联</tspan>
      <tspan x="35" y="-0.78125" style="font-size: 10px; font-family: 'SimHei'">弹</tspan>
      <tspan x="45" y="-0.78125" style="font-size: 10px; font-family: 'SimHei'">性</tspan>
      <tspan x="55" y="-0.78125" style="font-size: 10px; font-family: 'SimHei'">元</tspan>
      <tspan x="65" y="-0.78125" style="font-size: 10px; font-family: 'SimHei'"> </tspan>
      <tspan x="70" y="-0.78125" style="font-style: oblique; font-size: 10px; font-family: 'DejaVu Sans'">f</tspan>
      <tspan x="73.520508" y="-0.78125" style="font-style: oblique; font-size: 10px; font-family: 'DejaVu Sans'">P</tspan>
      <tspan x="83.452148" y="-0.78125" style="font-style: oblique; font-size: 10px; font-family: 'DejaVu Sans'">l</tspan>
      <tspan x="79.550781" y="-0.78125" style="font-size: 10px; font-family: 'DejaVu Sans'">(</tspan>
      <tspan x="86.230469" y="-0.78125" style="font-size: 10px; font-family: 'DejaVu Sans'">)</tspan>
      <tspan x="87.256104" y="-3.234375" style="font-size: 10px; font-family: 'DejaVu Sans'">̃</tspan>
     </text>
    </g>
   </g>
   <g id="text_8">
    <!-- 阻尼 $\beta\cdot\tilde{v}$ -->
    <g transform="translate(488.36 237.391725)">
     <text>
      <tspan x="0" y="-0.90625" style="font-size: 10px; font-family: 'SimHei'">阻</tspan>
      <tspan x="10" y="-0.90625" style="font-size: 10px; font-family: 'SimHei'">尼</tspan>
      <tspan x="20" y="-0.90625" style="font-size: 10px; font-family: 'SimHei'"> </tspan>
      <tspan x="25" y="-0.90625" style="font-style: oblique; font-size: 10px; font-family: 'DejaVu Sans'">β</tspan>
      <tspan x="38.457031" y="-0.90625" style="font-style: oblique; font-size: 10px; font-family: 'DejaVu Sans'">v</tspan>
      <tspan x="33.330078" y="-0.90625" style="font-size: 10px; font-family: 'DejaVu Sans'">⋅</tspan>
      <tspan x="45.045898" y="-1.234375" style="font-size: 10px; font-family: 'DejaVu Sans'">̃</tspan>
     </text>
    </g>
   </g>
   <g id="patch_6">
    <path d="M 9.202881 173.3795 
Q 21.72306 173.3795 32.566189 173.3795 
" style="fill: none; stroke: #000000; stroke-width: 1.5; stroke-linecap: round"/>
    <path d="M 28.566189 171.3795 
L 32.566189 173.3795 
L 28.566189 175.3795 
" style="fill: none; stroke: #000000; stroke-width: 1.5; stroke-linecap: round"/>
   </g>
   <g id="text_9">
    <!-- $F$ -->
    <g transform="translate(26.56 160.833225)">
     <text>
      <tspan x="0" y="-0.703125" style="font-style: oblique; font-size: 10px; font-family: 'DejaVu Sans'">F</tspan>
     </text>
    </g>
   </g>
   <g id="patch_7">
    <path d="M 973.197119 173.3795 
Q 960.67694 173.3795 949.833811 173.3795 
" style="fill: none; stroke: #000000; stroke-width: 1.5; stroke-linecap: round"/>
    <path d="M 953.833811 175.3795 
L 949.833811 173.3795 
L 953.833811 171.3795 
" style="fill: none; stroke: #000000; stroke-width: 1.5; stroke-linecap: round"/>
   </g>
   <g id="text_10">
    <!-- $F$ -->
    <g transform="translate(955.84 160.833225)">
     <text>
      <tspan x="0" y="-0.703125" style="font-style: oblique; font-size: 10px; font-family: 'DejaVu Sans'">F</tspan>
     </text>
    </g>
   </g>
   <g id="text_11">
    <!-- $F = F_0 \cdot \left[\ a \cdot fL(\tilde{l}) \cdot fV(\tilde{v}) + fP(\tilde{l}) + \beta \cdot \tilde{v}\ \right]$ -->
    <g transform="translate(375.565 357.885325)">
     <text>
      <tspan x="0" y="-0.71875" style="font-style: oblique; font-size: 13px; font-family: 'DejaVu Sans'">F</tspan>
      <tspan x="23.435547" y="-0.71875" style="font-style: oblique; font-size: 13px; font-family: 'DejaVu Sans'">F</tspan>
      <tspan x="55.456159" y="-0.71875" style="font-style: oblique; font-size: 13px; font-family: 'DejaVu Sans'">a</tspan>
      <tspan x="72.620221" y="-0.71875" style="font-style: oblique; font-size: 13px; font-family: 'DejaVu Sans'">f</tspan>
      <tspan x="77.196882" y="-0.71875" style="font-style: oblique; font-size: 13px; font-family: 'DejaVu Sans'">L</tspan>
      <tspan x="89.511335" y="-0.71875" style="font-style: oblique; font-size: 13px; font-family: 'DejaVu Sans'">l</tspan>
      <tspan x="107.392682" y="-0.71875" style="font-style: oblique; font-size: 13px; font-family: 'DejaVu Sans'">f</tspan>
      <tspan x="111.969343" y="-0.71875" style="font-style: oblique; font-size: 13px; font-family: 'DejaVu Sans'">V</tspan>
      <tspan x="125.934186" y="-0.71875" style="font-style: oblique; font-size: 13px; font-family: 'DejaVu Sans'">v</tspan>
      <tspan x="154.657331" y="-0.71875" style="font-style: oblique; font-size: 13px; font-family: 'DejaVu Sans'">f</tspan>
      <tspan x="159.233991" y="-0.71875" style="font-style: oblique; font-size: 13px; font-family: 'DejaVu Sans'">P</tspan>
      <tspan x="172.145124" y="-0.71875" style="font-style: oblique; font-size: 13px; font-family: 'DejaVu Sans'">l</tspan>
      <tspan x="196.786725" y="-0.71875" style="font-style: oblique; font-size: 13px; font-family: 'DejaVu Sans'">β</tspan>
      <tspan x="214.280866" y="-0.71875" style="font-style: oblique; font-size: 13px; font-family: 'DejaVu Sans'">v</tspan>
      <tspan x="10.010254" y="-0.71875" style="font-size: 13px; font-family: 'DejaVu Sans'">=</tspan>
      <tspan x="39.590967" y="-0.71875" style="font-size: 13px; font-family: 'DejaVu Sans'">⋅</tspan>
      <tspan x="65.955182" y="-0.71875" style="font-size: 13px; font-family: 'DejaVu Sans'">⋅</tspan>
      <tspan x="84.439557" y="-0.71875" style="font-size: 13px; font-family: 'DejaVu Sans'">(</tspan>
      <tspan x="93.123151" y="-0.71875" style="font-size: 13px; font-family: 'DejaVu Sans'">)</tspan>
      <tspan x="94.758039" y="-3.90625" style="font-size: 13px; font-family: 'DejaVu Sans'">̃</tspan>
      <tspan x="100.727643" y="-0.71875" style="font-size: 13px; font-family: 'DejaVu Sans'">⋅</tspan>
      <tspan x="120.862409" y="-0.71875" style="font-size: 13px; font-family: 'DejaVu Sans'">(</tspan>
      <tspan x="133.627546" y="-0.71875" style="font-size: 13px; font-family: 'DejaVu Sans'">)</tspan>
      <tspan x="134.201276" y="-1.140625" style="font-size: 13px; font-family: 'DejaVu Sans'">̃</tspan>
      <tspan x="141.232038" y="-0.71875" style="font-size: 13px; font-family: 'DejaVu Sans'">+</tspan>
      <tspan x="167.073346" y="-0.71875" style="font-size: 13px; font-family: 'DejaVu Sans'">(</tspan>
      <tspan x="175.75694" y="-0.71875" style="font-size: 13px; font-family: 'DejaVu Sans'">)</tspan>
      <tspan x="177.391828" y="-3.90625" style="font-size: 13px; font-family: 'DejaVu Sans'">̃</tspan>
      <tspan x="183.361432" y="-0.71875" style="font-size: 13px; font-family: 'DejaVu Sans'">+</tspan>
      <tspan x="207.615827" y="-0.71875" style="font-size: 13px; font-family: 'DejaVu Sans'">⋅</tspan>
      <tspan x="222.547956" y="-1.140625" style="font-size: 13px; font-family: 'DejaVu Sans'">̃</tspan>
      <tspan x="30.913086" y="1.414062" style="font-size: 9.1px; font-family: 'DejaVu Sans'">0</tspan>
      <tspan x="46.256006" y="-0.140625" style="font-size: 13px; font-family: 'STIXSizeOneSym'">[</tspan>
      <tspan x="226.195375" y="-0.140625" style="font-size: 13px; font-family: 'STIXSizeOneSym'">]</tspan>
     </text>
    </g>
   </g>
   <g id="text_12">
    <text style="font-size: 10px; font-family: 'SimHei'; text-anchor: middle" x="491.2" y="372.947025" transform="rotate(-0 491.2 372.947025)">主动收缩力 + 被动弹性力 + 阻尼力</text>
   </g>
   <g id="text_13">
    <text style="font-size: 12px; font-family: 'SimHei'; text-anchor: middle" x="491.2" y="16.7625" transform="rotate(-0 491.2 16.7625)">Hill 三元元素肌肉模型 (CE+PE+SE)</text>
   </g>
  </g>
 </g>
 <defs>
  <clipPath id="p4e8af778e0">
   <rect x="7.2" y="22.7625" width="968" height="376.5425"/>
  </clipPath>
 </defs>
</svg>
