<?xml version="1.0" encoding="utf-8" standalone="no"?>
<!DOCTYPE svg PUBLIC "-//W3C//DTD SVG 1.1//EN"
  "http://www.w3.org/Graphics/SVG/1.1/DTD/svg11.dtd">
<svg xmlns:xlink="http://www.w3.org/1999/xlink" width="854.4pt" height="424.055156pt" viewBox="0 0 854.4 424.055156" xmlns="http://www.w3.org/2000/svg" version="1.1">
 <metadata>
  <rdf:RDF xmlns:dc="http://purl.org/dc/elements/1.1/" xmlns:cc="http://creativecommons.org/ns#" xmlns:rdf="http://www.w3.org/1999/02/22-rdf-syntax-ns#">
   <cc:Work>
    <dc:type rdf:resource="http://purl.org/dc/dcmitype/StillImage"/>
    <dc:date>2026-06-16T16:26:08.192929</dc:date>
    <dc:format>image/svg+xml</dc:format>
    <dc:creator>
     <cc:Agent>
      <dc:title>Matplotlib v3.10.8, https://matplotlib.org/</dc:title>
     </cc:Agent>
    </dc:creator>
   </cc:Work>
  </rdf:RDF>
 </metadata>
 <defs>
  <style type="text/css">*{stroke-linejoin: round; stroke-linecap: butt}</style>
 </defs>
 <g id="figure_1">
  <g id="patch_1">
   <path d="M 0 424.055156 
L 854.4 424.055156 
L 854.4 0 
L 0 0 
z
" style="fill: #ffffff"/>
  </g>
  <g id="axes_1">
   <g id="patch_2">
    <path d="M 44.48 386.620781 
L 847.2 386.620781 
L 847.2 27.813281 
L 44.48 27.813281 
z
" style="fill: #ffffff"/>
   </g>
   <g id="matplotlib.axis_1">
    <g id="xtick_1">
     <g id="line2d_1">
      <path d="M 80.967273 386.620781 
L 80.967273 27.813281 
" clip-path="url(#p81afc056b1)" style="fill: none; stroke: #b0b0b0; stroke-opacity: 0.35; stroke-width: 0.8; stroke-linecap: square"/>
     </g>
     <g id="line2d_2">
      <defs>
       <path id="mdab1511b3c" d="M 0 0 
L 0 3.5 
" style="stroke: #000000; stroke-width: 0.8"/>
      </defs>
      <g>
       <use xlink:href="#mdab1511b3c" x="80.967273" y="386.620781" style="stroke: #000000; stroke-width: 0.8"/>
      </g>
     </g>
     <g id="text_1">
      <text style="font-size: 10px; font-family: 'SimHei'; text-anchor: middle" x="80.967273" y="400.495781" transform="rotate(-0 80.967273 400.495781)">0</text>
     </g>
    </g>
    <g id="xtick_2">
     <g id="line2d_3">
      <path d="M 226.916364 386.620781 
L 226.916364 27.813281 
" clip-path="url(#p81afc056b1)" style="fill: none; stroke: #b0b0b0; stroke-opacity: 0.35; stroke-width: 0.8; stroke-linecap: square"/>
     </g>
     <g id="line2d_4">
      <g>
       <use xlink:href="#mdab1511b3c" x="226.916364" y="386.620781" style="stroke: #000000; stroke-width: 0.8"/>
      </g>
     </g>
     <g id="text_2">
      <text style="font-size: 10px; font-family: 'SimHei'; text-anchor: middle" x="226.916364" y="400.495781" transform="rotate(-0 226.916364 400.495781)">2</text>
     </g>
    </g>
    <g id="xtick_3">
     <g id="line2d_5">
      <path d="M 372.865455 386.620781 
L 372.865455 27.813281 
" clip-path="url(#p81afc056b1)" style="fill: none; stroke: #b0b0b0; stroke-opacity: 0.35; stroke-width: 0.8; stroke-linecap: square"/>
     </g>
     <g id="line2d_6">
      <g>
       <use xlink:href="#mdab1511b3c" x="372.865455" y="386.620781" style="stroke: #000000; stroke-width: 0.8"/>
      </g>
     </g>
     <g id="text_3">
      <text style="font-size: 10px; font-family: 'SimHei'; text-anchor: middle" x="372.865455" y="400.495781" transform="rotate(-0 372.865455 400.495781)">4</text>
     </g>
    </g>
    <g id="xtick_4">
     <g id="line2d_7">
      <path d="M 518.814545 386.620781 
L 518.814545 27.813281 
" clip-path="url(#p81afc056b1)" style="fill: none; stroke: #b0b0b0; stroke-opacity: 0.35; stroke-width: 0.8; stroke-linecap: square"/>
     </g>
     <g id="line2d_8">
      <g>
       <use xlink:href="#mdab1511b3c" x="518.814545" y="386.620781" style="stroke: #000000; stroke-width: 0.8"/>
      </g>
     </g>
     <g id="text_4">
      <text style="font-size: 10px; font-family: 'SimHei'; text-anchor: middle" x="518.814545" y="400.495781" transform="rotate(-0 518.814545 400.495781)">6</text>
     </g>
    </g>
    <g id="xtick_5">
     <g id="line2d_9">
      <path d="M 664.763636 386.620781 
L 664.763636 27.813281 
" clip-path="url(#p81afc056b1)" style="fill: none; stroke: #b0b0b0; stroke-opacity: 0.35; stroke-width: 0.8; stroke-linecap: square"/>
     </g>
     <g id="line2d_10">
      <g>
       <use xlink:href="#mdab1511b3c" x="664.763636" y="386.620781" style="stroke: #000000; stroke-width: 0.8"/>
      </g>
     </g>
     <g id="text_5">
      <text style="font-size: 10px; font-family: 'SimHei'; text-anchor: middle" x="664.763636" y="400.495781" transform="rotate(-0 664.763636 400.495781)">8</text>
     </g>
    </g>
    <g id="xtick_6">
     <g id="line2d_11">
      <path d="M 810.712727 386.620781 
L 810.712727 27.813281 
" clip-path="url(#p81afc056b1)" style="fill: none; stroke: #b0b0b0; stroke-opacity: 0.35; stroke-width: 0.8; stroke-linecap: square"/>
     </g>
     <g id="line2d_12">
      <g>
       <use xlink:href="#mdab1511b3c" x="810.712727" y="386.620781" style="stroke: #000000; stroke-width: 0.8"/>
      </g>
     </g>
     <g id="text_6">
      <text style="font-size: 10px; font-family: 'SimHei'; text-anchor: middle" x="810.712727" y="400.495781" transform="rotate(-0 810.712727 400.495781)">10</text>
     </g>
    </g>
    <g id="text_7">
     <text style="font-size: 12px; font-family: 'SimHei'; text-anchor: middle" x="445.84" y="415.355156" transform="rotate(-0 445.84 415.355156)">时间 (s)</text>
    </g>
   </g>
   <g id="matplotlib.axis_2">
    <g id="ytick_1">
     <g id="line2d_13">
      <path d="M 44.48 386.620781 
L 847.2 386.620781 
" clip-path="url(#p81afc056b1)" style="fill: none; stroke: #b0b0b0; stroke-opacity: 0.35; stroke-width: 0.8; stroke-linecap: square"/>
     </g>
     <g id="line2d_14">
      <defs>
       <path id="m2aafdf9f40" d="M 0 0 
L -3.5 0 
" style="stroke: #000000; stroke-width: 0.8"/>
      </defs>
      <g>
       <use xlink:href="#m2aafdf9f40" x="44.48" y="386.620781" style="stroke: #000000; stroke-width: 0.8"/>
      </g>
     </g>
     <g id="text_8">
      <text style="font-size: 10px; font-family: 'SimHei'; text-anchor: end" x="37.48" y="390.058281" transform="rotate(-0 37.48 390.058281)">-40</text>
     </g>
    </g>
    <g id="ytick_2">
     <g id="line2d_15">
      <path d="M 44.48 296.918906 
L 847.2 296.918906 
" clip-path="url(#p81afc056b1)" style="fill: none; stroke: #b0b0b0; stroke-opacity: 0.35; stroke-width: 0.8; stroke-linecap: square"/>
     </g>
     <g id="line2d_16">
      <g>
       <use xlink:href="#m2aafdf9f40" x="44.48" y="296.918906" style="stroke: #000000; stroke-width: 0.8"/>
      </g>
     </g>
     <g id="text_9">
      <text style="font-size: 10px; font-family: 'SimHei'; text-anchor: end" x="37.48" y="300.356406" transform="rotate(-0 37.48 300.356406)">-20</text>
     </g>
    </g>
    <g id="ytick_3">
     <g id="line2d_17">
      <path d="M 44.48 207.217031 
L 847.2 207.217031 
" clip-path="url(#p81afc056b1)" style="fill: none; stroke: #b0b0b0; stroke-opacity: 0.35; stroke-width: 0.8; stroke-linecap: square"/>
     </g>
     <g id="line2d_18">
      <g>
       <use xlink:href="#m2aafdf9f40" x="44.48" y="207.217031" style="stroke: #000000; stroke-width: 0.8"/>
      </g>
     </g>
     <g id="text_10">
      <text style="font-size: 10px; font-family: 'SimHei'; text-anchor: end" x="37.48" y="210.654531" transform="rotate(-0 37.48 210.654531)">0</text>
     </g>
    </g>
    <g id="ytick_4">
     <g id="line2d_19">
      <path d="M 44.48 117.515156 
L 847.2 117.515156 
" clip-path="url(#p81afc056b1)" style="fill: none; stroke: #b0b0b0; stroke-opacity: 0.35; stroke-width: 0.8; stroke-linecap: square"/>
     </g>
     <g id="line2d_20">
      <g>
       <use xlink:href="#m2aafdf9f40" x="44.48" y="117.515156" style="stroke: #000000; stroke-width: 0.8"/>
      </g>
     </g>
     <g id="text_11">
      <text style="font-size: 10px; font-family: 'SimHei'; text-anchor: end" x="37.48" y="120.952656" transform="rotate(-0 37.48 120.952656)">20</text>
     </g>
    </g>
    <g id="ytick_5">
     <g id="line2d_21">
      <path d="M 44.48 27.813281 
L 847.2 27.813281 
" clip-path="url(#p81afc056b1)" style="fill: none; stroke: #b0b0b0; stroke-opacity: 0.35; stroke-width: 0.8; stroke-linecap: square"/>
     </g>
     <g id="line2d_22">
      <g>
       <use xlink:href="#m2aafdf9f40" x="44.48" y="27.813281" style="stroke: #000000; stroke-width: 0.8"/>
      </g>
     </g>
     <g id="text_12">
      <text style="font-size: 10px; font-family: 'SimHei'; text-anchor: end" x="37.48" y="31.250781" transform="rotate(-0 37.48 31.250781)">40</text>
     </g>
    </g>
    <g id="text_13">
     <!-- 方向盘角度 ($^\circ$) -->
     <g transform="translate(16.98 250.717031) rotate(-90)">
      <text>
       <tspan x="0" y="-0.109375" style="font-size: 12px; font-family: 'SimHei'">方</tspan>
       <tspan x="12" y="-0.109375" style="font-size: 12px; font-family: 'SimHei'">向</tspan>
       <tspan x="24" y="-0.109375" style="font-size: 12px; font-family: 'SimHei'">盘</tspan>
       <tspan x="36" y="-0.109375" style="font-size: 12px; font-family: 'SimHei'">角</tspan>
       <tspan x="48" y="-0.109375" style="font-size: 12px; font-family: 'SimHei'">度</tspan>
       <tspan x="60" y="-0.109375" style="font-size: 12px; font-family: 'SimHei'"> </tspan>
       <tspan x="66" y="-0.109375" style="font-size: 12px; font-family: 'SimHei'">(</tspan>
       <tspan x="80.974219" y="-0.109375" style="font-size: 12px; font-family: 'SimHei'">)</tspan>
       <tspan x="73.751367" y="-4.703125" style="font-size: 8.4px; font-family: 'DejaVu Sans'">∘</tspan>
      </text>
     </g>
    </g>
   </g>
   <g id="line2d_23">
    <path d="M 80.967273 207.217031 
L 226.185705 207.217031 
L 227.099028 72.664219 
L 445.383338 72.664219 
L 446.296662 350.740031 
L 664.580972 350.740031 
L 665.494295 207.217031 
L 810.712727 207.217031 
L 810.712727 207.217031 
" clip-path="url(#p81afc056b1)" style="fill: none; stroke: #203366; stroke-width: 2.2; stroke-linecap: square"/>
   </g>
   <g id="line2d_24">
    <path d="M 80.967273 206.435666 
L 81.880596 210.115178 
L 82.79392 201.233498 
L 83.707243 206.354194 
L 84.620567 206.942928 
L 85.53389 215.066264 
L 86.447214 210.897553 
L 87.360537 202.590041 
L 88.273861 204.862476 
L 89.187184 199.098831 
L 90.100507 203.209964 
L 91.013831 198.281885 
L 91.927154 205.908269 
L 92.840478 209.775816 
L 93.753801 202.055423 
L 94.667125 205.461237 
L 95.580448 207.248284 
L 96.493772 207.486943 
L 97.407095 206.86886 
L 98.320419 215.424031 
L 99.233742 206.400062 
L 100.147066 207.475448 
L 101.060389 198.120173 
L 101.973713 213.255047 
L 102.887036 204.537608 
L 103.80036 209.38622 
L 104.713683 203.085096 
L 105.627006 202.234642 
L 106.54033 218.461213 
L 107.453653 209.012829 
L 108.366977 204.239867 
L 109.2803 207.924891 
L 110.193624 209.863354 
L 111.106947 208.248427 
L 112.020271 213.210231 
L 113.846918 202.44145 
L 114.760241 207.080592 
L 115.673565 206.668138 
L 116.586888 205.138782 
L 117.500212 212.569151 
L 118.413535 212.33669 
L 119.326859 212.770854 
L 120.240182 200.415642 
L 121.153506 215.326804 
L 122.066829 203.683237 
L 122.980152 204.793061 
L 123.893476 207.653344 
L 124.806799 206.229996 
L 125.720123 207.002319 
L 126.633446 202.554895 
L 127.54677 200.706507 
L 128.460093 208.730241 
L 129.373417 204.342441 
L 130.28674 211.634881 
L 131.200064 206.015008 
L 132.113387 212.341908 
L 133.026711 203.447829 
L 133.940034 213.389999 
L 134.853358 210.462374 
L 135.766681 203.244409 
L 136.680005 206.675644 
L 137.593328 204.984431 
L 138.506651 202.11068 
L 139.419975 209.222864 
L 140.333298 203.04093 
L 141.246622 206.351741 
L 142.159945 207.943554 
L 143.073269 207.663996 
L 143.986592 206.427568 
L 144.899916 214.95331 
L 145.813239 208.291504 
L 146.726563 205.671558 
L 147.639886 209.64455 
L 148.55321 211.345115 
L 149.466533 198.856457 
L 150.379857 212.43694 
L 151.29318 207.549982 
L 152.206504 209.654486 
L 153.119827 199.887971 
L 154.033151 211.929358 
L 154.946474 207.211126 
L 155.859797 210.208391 
L 156.773121 208.293332 
L 157.686444 210.26734 
L 158.599768 211.841051 
L 159.513091 204.758387 
L 160.426415 210.332691 
L 161.339738 208.40461 
L 162.253062 207.59272 
L 163.166385 208.84275 
L 164.079709 200.213582 
L 164.993032 199.841344 
L 165.906356 205.484222 
L 166.819679 202.82498 
L 167.733003 212.380558 
L 168.646326 201.17759 
L 170.472973 206.57245 
L 171.386297 204.053527 
L 172.29962 202.670478 
L 173.212943 205.12723 
L 174.126267 203.304195 
L 175.03959 213.83616 
L 175.952914 206.071438 
L 176.866237 212.819707 
L 177.779561 211.34021 
L 178.692884 207.631462 
L 179.606208 210.555368 
L 180.519531 206.591874 
L 181.432855 210.930145 
L 182.346178 204.889688 
L 183.259502 209.782757 
L 184.172825 212.260361 
L 185.999472 203.097536 
L 186.912796 199.189864 
L 187.826119 210.535875 
L 188.739442 204.525601 
L 189.652766 212.274989 
L 190.566089 207.669979 
L 191.479413 207.077557 
L 192.392736 210.137348 
L 193.30606 207.968911 
L 195.132707 205.135273 
L 196.04603 209.100764 
L 196.959354 207.087448 
L 197.872677 204.012884 
L 198.786001 213.703261 
L 200.612648 207.237217 
L 201.525971 201.229548 
L 202.439295 198.734357 
L 203.352618 205.376257 
L 204.265942 208.981813 
L 205.179265 207.246585 
L 206.092588 209.016026 
L 207.005912 207.660436 
L 207.919235 197.36795 
L 208.832559 210.752325 
L 209.745882 204.027574 
L 211.572529 206.713649 
L 212.485853 208.675251 
L 213.399176 203.060431 
L 214.3125 212.318019 
L 215.225823 207.081806 
L 216.139147 207.455576 
L 217.05247 215.200533 
L 217.965794 202.247422 
L 218.879117 209.23553 
L 219.792441 208.388174 
L 220.705764 213.119501 
L 221.619087 197.380822 
L 222.532411 205.547099 
L 223.445734 209.556808 
L 224.359058 206.4326 
L 225.272381 204.792058 
L 226.185705 208.623264 
L 227.099028 206.630422 
L 228.012352 201.527733 
L 228.925675 208.599176 
L 229.838999 194.946246 
L 230.752322 194.680292 
L 231.665646 188.433493 
L 232.578969 190.218141 
L 233.492293 186.348067 
L 234.405616 181.301104 
L 235.31894 177.861856 
L 236.232263 175.990913 
L 237.145587 167.423085 
L 238.05891 167.501471 
L 238.972233 164.700833 
L 239.885557 161.154616 
L 240.79888 173.29954 
L 241.712204 162.285981 
L 242.625527 153.295372 
L 243.538851 159.730455 
L 244.452174 154.079348 
L 245.365498 158.704266 
L 246.278821 150.608672 
L 247.192145 135.916863 
L 248.105468 133.232768 
L 249.018792 142.542875 
L 249.932115 137.255386 
L 250.845439 139.328331 
L 251.758762 134.438015 
L 252.672086 132.913027 
L 253.585409 139.420792 
L 254.498733 130.410859 
L 255.412056 136.096252 
L 256.325379 129.526186 
L 257.238703 131.218903 
L 258.152026 123.708611 
L 259.06535 113.97174 
L 259.978673 123.049557 
L 260.891997 118.371911 
L 261.80532 114.862576 
L 262.718644 110.722922 
L 263.631967 112.302381 
L 264.545291 114.290359 
L 265.458614 116.723942 
L 266.371938 120.884731 
L 267.285261 107.998471 
L 268.198585 100.365164 
L 269.111908 113.552661 
L 270.025232 113.711061 
L 270.938555 115.660013 
L 271.851878 99.934489 
L 272.765202 101.404415 
L 273.678525 109.566453 
L 274.591849 104.073744 
L 275.505172 95.951514 
L 276.418496 95.693881 
L 277.331819 97.858805 
L 278.245143 101.401697 
L 279.158466 105.485491 
L 280.985113 101.114075 
L 281.898437 89.32892 
L 282.81176 95.536153 
L 283.725084 104.852529 
L 284.638407 102.066899 
L 285.551731 97.414891 
L 286.465054 99.176668 
L 287.378378 103.677431 
L 288.291701 93.952686 
L 289.205024 90.349822 
L 290.118348 96.434316 
L 291.031671 95.368577 
L 291.944995 96.415316 
L 292.858318 84.428227 
L 293.771642 87.808248 
L 294.684965 92.247718 
L 295.598289 84.171062 
L 296.511612 91.655904 
L 297.424936 89.339657 
L 298.338259 89.321499 
L 299.251583 93.948841 
L 301.07823 83.886771 
L 301.991553 84.635772 
L 302.904877 79.976182 
L 303.8182 85.468357 
L 304.731523 73.74066 
L 305.644847 88.141801 
L 306.55817 87.660783 
L 307.471494 82.590146 
L 308.384817 85.592195 
L 309.298141 81.819237 
L 310.211464 82.332247 
L 311.124788 85.48782 
L 312.038111 87.300166 
L 312.951435 87.744971 
L 313.864758 76.050115 
L 314.778082 86.786987 
L 315.691405 82.49594 
L 316.604729 83.041005 
L 317.518052 76.68863 
L 318.431376 76.266659 
L 319.344699 80.437391 
L 320.258023 80.946998 
L 321.171346 78.354443 
L 322.084669 85.88117 
L 322.997993 70.982219 
L 323.911316 77.600716 
L 324.82464 81.198939 
L 325.737963 76.306546 
L 326.651287 79.900388 
L 327.56461 77.608446 
L 328.477934 79.294556 
L 329.391257 77.955169 
L 330.304581 73.007594 
L 331.217904 76.682933 
L 332.131228 81.202314 
L 333.044551 89.85799 
L 334.871198 72.140627 
L 335.784522 77.122587 
L 336.697845 74.697318 
L 337.611169 80.721993 
L 338.524492 79.891072 
L 339.437815 83.425523 
L 340.351139 72.355456 
L 341.264462 84.36797 
L 342.177786 78.354533 
L 343.091109 73.856118 
L 344.004433 73.026366 
L 344.917756 76.570061 
L 345.83108 75.674256 
L 346.744403 82.025139 
L 347.657727 75.980678 
L 348.57105 80.429593 
L 349.484374 82.115969 
L 350.397697 77.052072 
L 351.311021 67.09226 
L 352.224344 79.193084 
L 353.137668 68.301577 
L 354.050991 75.565247 
L 354.964314 84.985514 
L 355.877638 82.754612 
L 356.790961 69.139295 
L 357.704285 67.128872 
L 358.617608 78.772256 
L 359.530932 73.977548 
L 360.444255 75.381491 
L 361.357579 73.970716 
L 362.270902 78.886399 
L 363.184226 82.274067 
L 364.097549 74.029659 
L 365.010873 64.524921 
L 365.924196 79.223277 
L 366.83752 76.380705 
L 367.750843 78.864177 
L 368.664167 66.158495 
L 369.57749 73.887878 
L 370.490814 75.902887 
L 371.404137 68.231874 
L 372.31746 68.328569 
L 373.230784 78.528194 
L 374.144107 67.91827 
L 375.057431 72.752252 
L 375.970754 65.195084 
L 376.884078 86.811728 
L 377.797401 69.712894 
L 378.710725 78.030267 
L 379.624048 73.750767 
L 380.537372 68.38711 
L 381.450695 79.169359 
L 382.364019 81.387448 
L 383.277342 67.38886 
L 384.190666 76.243444 
L 385.103989 79.02425 
L 386.017313 80.887667 
L 386.930636 69.377274 
L 387.843959 70.353431 
L 388.757283 79.280326 
L 389.670606 77.07275 
L 390.58393 67.68079 
L 391.497253 74.994307 
L 392.410577 72.826406 
L 393.3239 68.386541 
L 394.237224 78.089428 
L 395.150547 68.865664 
L 396.063871 79.536681 
L 396.977194 71.925304 
L 397.890518 72.774326 
L 398.803841 80.80501 
L 399.717165 73.05357 
L 400.630488 77.497911 
L 401.543812 77.159949 
L 402.457135 76.478251 
L 403.370459 76.531048 
L 404.283782 80.882492 
L 405.197105 73.004692 
L 406.110429 76.728093 
L 407.023752 71.514016 
L 407.937076 71.381258 
L 408.850399 71.81772 
L 409.763723 79.341328 
L 410.677046 66.078387 
L 411.59037 75.948015 
L 412.503693 77.593897 
L 413.417017 70.176104 
L 414.33034 74.351277 
L 415.243664 73.374484 
L 416.156987 70.443386 
L 417.070311 71.634342 
L 417.983634 77.986472 
L 418.896958 73.483474 
L 419.810281 78.054801 
L 420.723605 73.617203 
L 421.636928 65.864779 
L 422.550251 74.2705 
L 423.463575 77.70748 
L 424.376898 74.002111 
L 425.290222 72.117914 
L 426.203545 68.980428 
L 427.116869 64.400047 
L 428.030192 72.413691 
L 428.943516 69.001907 
L 429.856839 68.793222 
L 430.770163 69.888725 
L 431.683486 70.501656 
L 432.59681 71.387127 
L 433.510133 70.907054 
L 434.423457 73.107602 
L 435.33678 64.417325 
L 436.250104 71.793369 
L 437.163427 68.415733 
L 438.07675 72.486807 
L 438.990074 71.771436 
L 439.903397 69.500371 
L 440.816721 70.308381 
L 441.730044 75.476285 
L 443.556691 74.867661 
L 444.470015 77.884932 
L 445.383338 74.592303 
L 446.296662 211.16691 
L 447.209985 219.034912 
L 448.123309 209.128621 
L 449.036632 220.217045 
L 449.949956 211.087799 
L 450.863279 220.919504 
L 451.776603 233.079342 
L 452.689926 239.900637 
L 453.60325 240.957485 
L 454.516573 240.777337 
L 455.429896 240.216438 
L 456.34322 241.681565 
L 457.256543 246.723119 
L 458.169867 252.938155 
L 459.08319 251.219656 
L 459.996514 258.189092 
L 460.909837 256.670538 
L 461.823161 262.062949 
L 462.736484 261.152385 
L 463.649808 267.621717 
L 464.563131 259.45804 
L 465.476455 269.576806 
L 466.389778 266.899707 
L 467.303102 277.02311 
L 468.216425 275.93785 
L 469.129749 281.720715 
L 470.043072 284.203358 
L 470.956395 288.616714 
L 471.869719 284.60027 
L 472.783042 285.916031 
L 473.696366 291.89831 
L 474.609689 292.412646 
L 475.523013 287.135491 
L 476.436336 296.468114 
L 477.34966 290.327988 
L 478.262983 299.063461 
L 479.176307 293.7148 
L 480.08963 300.216192 
L 481.002954 290.338527 
L 481.916277 295.484434 
L 482.829601 311.780985 
L 483.742924 298.415353 
L 484.656248 301.650532 
L 485.569571 300.20357 
L 486.482895 295.96044 
L 487.396218 302.800932 
L 488.309541 302.42673 
L 489.222865 307.752091 
L 490.136188 301.63768 
L 491.049512 318.216638 
L 491.962835 313.467898 
L 492.876159 317.729667 
L 493.789482 310.559944 
L 494.702806 319.90921 
L 495.616129 314.832084 
L 496.529453 324.541936 
L 497.442776 320.973401 
L 498.3561 310.943309 
L 499.269423 315.441772 
L 500.182747 315.609833 
L 501.09607 319.75088 
L 502.009394 310.058781 
L 502.922717 324.918636 
L 503.836041 322.391244 
L 504.749364 312.645619 
L 505.662687 323.578802 
L 506.576011 320.896997 
L 507.489334 320.764202 
L 508.402658 330.405142 
L 509.315981 328.988398 
L 510.229305 320.547688 
L 511.142628 327.704936 
L 512.055952 330.547519 
L 512.969275 320.017775 
L 513.882599 327.277358 
L 514.795922 341.153257 
L 515.709246 316.539531 
L 516.622569 336.836546 
L 517.535893 340.585628 
L 518.449216 327.58396 
L 519.36254 332.392243 
L 520.275863 332.738805 
L 521.189186 336.650285 
L 522.10251 332.370035 
L 523.015833 329.782051 
L 523.929157 336.413195 
L 524.84248 332.352399 
L 525.755804 340.199749 
L 526.669127 321.738361 
L 527.582451 335.160394 
L 528.495774 332.748926 
L 529.409098 343.818082 
L 530.322421 326.198587 
L 531.235745 329.954026 
L 532.149068 337.49886 
L 533.062392 332.073363 
L 533.975715 340.006716 
L 534.889039 338.503814 
L 535.802362 334.129316 
L 536.715686 337.638118 
L 537.629009 348.195535 
L 538.542332 338.919241 
L 539.455656 349.621389 
L 540.368979 342.851163 
L 541.282303 347.013446 
L 542.195626 342.984789 
L 543.10895 344.683557 
L 544.022273 343.919088 
L 544.935597 347.705431 
L 545.84892 335.198981 
L 546.762244 339.978874 
L 547.675567 343.660516 
L 548.588891 340.629685 
L 549.502214 341.482304 
L 550.415538 331.287509 
L 551.328861 347.800598 
L 552.242185 337.912551 
L 553.155508 337.552377 
L 554.068831 341.669786 
L 554.982155 339.953272 
L 555.895478 342.50775 
L 556.808802 345.594353 
L 557.722125 339.757096 
L 558.635449 342.989364 
L 559.548772 341.985717 
L 560.462096 343.686563 
L 561.375419 351.956321 
L 562.288743 343.206489 
L 563.202066 348.51857 
L 564.11539 336.578285 
L 565.028713 342.482206 
L 565.942037 353.402984 
L 566.85536 352.010233 
L 567.768684 348.183472 
L 568.682007 338.834035 
L 569.595331 360.595466 
L 571.421977 335.206074 
L 572.335301 355.562997 
L 573.248624 336.351022 
L 574.161948 342.379556 
L 575.075271 349.259098 
L 575.988595 343.29504 
L 576.901918 342.014194 
L 577.815242 350.052236 
L 578.728565 353.815903 
L 579.641889 351.685608 
L 580.555212 346.780247 
L 581.468536 357.187392 
L 582.381859 351.133784 
L 583.295183 341.594666 
L 584.208506 348.272135 
L 585.12183 347.500924 
L 586.035153 345.761369 
L 586.948477 351.332019 
L 587.8618 353.866294 
L 588.775123 349.300875 
L 589.688447 346.81089 
L 590.60177 353.137364 
L 591.515094 338.212896 
L 592.428417 349.614687 
L 593.341741 345.526676 
L 594.255064 351.086813 
L 595.168388 344.309564 
L 596.081711 338.369118 
L 596.995035 352.086959 
L 597.908358 341.891013 
L 598.821682 348.668431 
L 599.735005 351.14236 
L 600.648329 341.541171 
L 601.561652 351.788063 
L 602.474976 343.960927 
L 603.388299 356.66432 
L 604.301622 351.728074 
L 605.214946 350.092976 
L 606.128269 347.863139 
L 607.041593 358.725519 
L 607.954916 346.128074 
L 609.781563 355.455306 
L 610.694887 352.181087 
L 611.60821 344.737979 
L 612.521534 351.734483 
L 613.434857 339.470908 
L 614.348181 344.955618 
L 615.261504 348.584793 
L 616.174828 342.123721 
L 617.088151 346.481333 
L 618.001475 339.411098 
L 619.828122 354.988192 
L 620.741445 347.205524 
L 621.654768 349.38641 
L 622.568092 348.858002 
L 623.481415 342.284401 
L 624.394739 354.254055 
L 625.308062 341.596503 
L 626.221386 350.559346 
L 627.134709 343.910234 
L 628.048033 347.95871 
L 628.961356 351.324294 
L 629.87468 343.113977 
L 630.788003 346.407233 
L 631.701327 346.073339 
L 632.61465 348.436855 
L 633.527974 357.453027 
L 634.441297 346.414615 
L 635.354621 350.133709 
L 636.267944 351.725972 
L 637.181267 350.56159 
L 638.094591 347.58961 
L 639.007914 343.68431 
L 639.921238 350.819552 
L 640.834561 343.237253 
L 641.747885 351.582098 
L 642.661208 348.882011 
L 643.574532 348.550361 
L 644.487855 349.745499 
L 645.401179 349.357426 
L 646.314502 345.014489 
L 647.227826 354.15509 
L 648.141149 357.249765 
L 649.054473 357.120187 
L 649.967796 343.386091 
L 650.88112 349.497907 
L 651.794443 342.231459 
L 652.707767 345.093974 
L 653.62109 357.096567 
L 654.534413 344.810101 
L 655.447737 349.711444 
L 656.36106 340.279882 
L 657.274384 352.765064 
L 658.187707 354.271452 
L 659.101031 348.813156 
L 660.014354 353.205486 
L 660.927678 354.23576 
L 661.841001 355.795749 
L 662.754325 349.543077 
L 663.667648 339.982264 
L 664.580972 353.692305 
L 665.494295 77.334528 
L 666.407619 74.613291 
L 667.320942 81.9745 
L 668.234266 79.434947 
L 669.147589 81.217837 
L 670.060913 91.721086 
L 670.974236 90.63474 
L 671.887559 93.321092 
L 672.800883 101.709246 
L 673.714206 103.724483 
L 674.62753 112.378584 
L 675.540853 106.73299 
L 676.454177 106.064074 
L 677.3675 113.851746 
L 678.280824 112.89644 
L 679.194147 120.970367 
L 680.107471 117.918402 
L 681.020794 127.122957 
L 681.934118 133.044345 
L 682.847441 130.98498 
L 683.760765 138.886405 
L 684.674088 130.462615 
L 685.587412 141.185215 
L 686.500735 139.590926 
L 687.414058 139.93965 
L 688.327382 147.458004 
L 689.240705 143.941469 
L 690.154029 144.332317 
L 691.067352 146.75819 
L 691.980676 152.959559 
L 692.893999 147.510247 
L 693.807323 153.144797 
L 694.720646 160.604887 
L 695.63397 150.939717 
L 696.547293 150.82845 
L 697.460617 162.006771 
L 698.37394 161.673647 
L 699.287264 163.021159 
L 700.200587 160.913937 
L 702.027234 175.09835 
L 702.940558 165.757921 
L 703.853881 167.473658 
L 705.680528 177.352112 
L 707.507175 171.400827 
L 708.420498 175.410375 
L 709.333822 171.550971 
L 710.247145 171.137467 
L 711.160469 180.812098 
L 712.073792 177.263573 
L 712.987116 177.30759 
L 713.900439 175.565974 
L 714.813763 183.987692 
L 715.727086 186.269505 
L 716.64041 182.610217 
L 717.553733 186.815376 
L 718.467057 181.268847 
L 719.38038 184.181044 
L 720.293703 189.255692 
L 721.207027 182.841842 
L 722.12035 192.35506 
L 723.033674 181.989852 
L 723.946997 188.852448 
L 724.860321 187.201782 
L 725.773644 183.342892 
L 726.686968 187.296754 
L 727.600291 193.99646 
L 728.513615 188.051937 
L 729.426938 194.091634 
L 730.340262 195.423013 
L 731.253585 200.877629 
L 732.166909 193.407067 
L 733.080232 193.240775 
L 733.993556 194.687249 
L 734.906879 192.670647 
L 735.820203 201.872419 
L 736.733526 199.922281 
L 737.646849 198.807261 
L 738.560173 194.911136 
L 739.473496 195.456268 
L 740.38682 195.835982 
L 741.300143 197.033367 
L 742.213467 208.40406 
L 743.12679 193.589961 
L 744.040114 202.380141 
L 744.953437 202.293755 
L 745.866761 201.73289 
L 746.780084 202.364927 
L 747.693408 190.281683 
L 748.606731 197.506715 
L 749.520055 198.409393 
L 750.433378 195.946402 
L 751.346702 198.054137 
L 752.260025 199.703976 
L 753.173349 200.453024 
L 754.086672 203.097238 
L 754.999995 198.926145 
L 755.913319 201.533905 
L 756.826642 195.971406 
L 757.739966 202.779765 
L 758.653289 201.331941 
L 759.566613 202.622398 
L 760.479936 200.171172 
L 761.39326 207.086267 
L 762.306583 209.357071 
L 763.219907 201.578494 
L 764.13323 206.699881 
L 765.046554 202.906497 
L 765.959877 200.979385 
L 766.873201 200.293871 
L 767.786524 200.308479 
L 768.699848 208.159806 
L 769.613171 201.502565 
L 770.526494 201.305728 
L 771.439818 208.42296 
L 772.353141 205.728491 
L 773.266465 205.892 
L 774.179788 206.236678 
L 775.093112 204.320361 
L 776.006435 205.461389 
L 776.919759 208.614696 
L 777.833082 207.266253 
L 778.746406 203.874971 
L 779.659729 202.018176 
L 780.573053 207.625603 
L 781.486376 206.433122 
L 782.3997 204.191995 
L 783.313023 203.781235 
L 784.226347 200.522242 
L 785.13967 210.801183 
L 786.052994 201.294919 
L 786.966317 209.711347 
L 787.87964 203.337914 
L 788.792964 206.750003 
L 789.706287 200.256558 
L 790.619611 209.289741 
L 791.532934 205.08213 
L 792.446258 206.54334 
L 793.359581 204.4228 
L 794.272905 207.377973 
L 795.186228 206.247757 
L 796.099552 207.525197 
L 797.012875 205.877185 
L 797.926199 207.171062 
L 798.839522 213.105204 
L 799.752846 204.001294 
L 800.666169 204.77189 
L 801.579493 206.567326 
L 802.492816 206.34826 
L 803.406139 209.525213 
L 804.319463 205.64062 
L 805.232786 207.881276 
L 806.14611 203.495494 
L 807.059433 202.221188 
L 808.88608 209.015868 
L 809.799404 202.080749 
L 810.712727 205.026247 
L 810.712727 205.026247 
" clip-path="url(#p81afc056b1)" style="fill: none; stroke: #c84230; stroke-width: 1.4; stroke-linecap: square"/>
   </g>
   <g id="patch_3">
    <path d="M 44.48 386.620781 
L 44.48 27.813281 
" style="fill: none; stroke: #000000; stroke-width: 0.8; stroke-linejoin: miter; stroke-linecap: square"/>
   </g>
   <g id="patch_4">
    <path d="M 847.2 386.620781 
L 847.2 27.813281 
" style="fill: none; stroke: #000000; stroke-width: 0.8; stroke-linejoin: miter; stroke-linecap: square"/>
   </g>
   <g id="patch_5">
    <path d="M 44.48 386.620781 
L 847.2 386.620781 
" style="fill: none; stroke: #000000; stroke-width: 0.8; stroke-linejoin: miter; stroke-linecap: square"/>
   </g>
   <g id="patch_6">
    <path d="M 44.48 27.813281 
L 847.2 27.813281 
" style="fill: none; stroke: #000000; stroke-width: 0.8; stroke-linejoin: miter; stroke-linecap: square"/>
   </g>
   <g id="text_14">
    <text style="font-size: 13px; font-family: 'SimHei'; text-anchor: middle" x="445.84" y="17.813281" transform="rotate(-0 445.84 17.813281)">阶跃轨迹下方向盘角度跟踪曲线</text>
   </g>
   <g id="legend_1">
    <g id="line2d_25">
     <path d="M 762.5 42.714844 
L 773.5 42.714844 
L 784.5 42.714844 
" style="fill: none; stroke: #203366; stroke-width: 2.2; stroke-linecap: square"/>
    </g>
    <g id="text_15">
     <text style="font-size: 11px; font-family: 'SimHei'; text-anchor: start" x="793.3" y="46.564844" transform="rotate(-0 793.3 46.564844)">目标角度</text>
    </g>
    <g id="line2d_26">
     <path d="M 762.5 58.441406 
L 773.5 58.441406 
L 784.5 58.441406 
" style="fill: none; stroke: #c84230; stroke-width: 1.4; stroke-linecap: square"/>
    </g>
    <g id="text_16">
     <text style="font-size: 11px; font-family: 'SimHei'; text-anchor: start" x="793.3" y="62.291406" transform="rotate(-0 793.3 62.291406)">实际角度</text>
    </g>
   </g>
  </g>
 </g>
 <defs>
  <clipPath id="p81afc056b1">
   <rect x="44.48" y="27.813281" width="802.72" height="358.8075"/>
  </clipPath>
 </defs>
</svg>
