<?xml version="1.0" encoding="utf-8" standalone="no"?>
<!DOCTYPE svg PUBLIC "-//W3C//DTD SVG 1.1//EN"
  "http://www.w3.org/Graphics/SVG/1.1/DTD/svg11.dtd">
<svg xmlns:xlink="http://www.w3.org/1999/xlink" width="982.4pt" height="442.4pt" viewBox="0 0 982.4 442.4" xmlns="http://www.w3.org/2000/svg" version="1.1">
 <metadata>
  <rdf:RDF xmlns:dc="http://purl.org/dc/elements/1.1/" xmlns:cc="http://creativecommons.org/ns#" xmlns:rdf="http://www.w3.org/1999/02/22-rdf-syntax-ns#">
   <cc:Work>
    <dc:type rdf:resource="http://purl.org/dc/dcmitype/StillImage"/>
    <dc:date>2026-06-16T17:00:17.091848</dc:date>
    <dc:format>image/svg+xml</dc:format>
    <dc:creator>
     <cc:Agent>
      <dc:title>Matplotlib v3.10.8, https://matplotlib.org/</dc:title>
     </cc:Agent>
    </dc:creator>
   </cc:Work>
  </rdf:RDF>
 </metadata>
 <defs>
  <style type="text/css">*{stroke-linejoin: round; stroke-linecap: butt}</style>
 </defs>
 <g id="figure_1">
  <g id="patch_1">
   <path d="M 0 442.4 
L 982.4 442.4 
L 982.4 0 
L 0 0 
z
" style="fill: #ffffff"/>
  </g>
  <g id="axes_1">
   <g id="patch_2">
    <path d="M 394.4 71.4 
L 588 71.4 
L 588 28.6 
L 394.4 28.6 
z
" clip-path="url(#pb47c899035)" style="fill: #e0ecff; stroke: #335599; stroke-linejoin: miter"/>
   </g>
   <g id="patch_3">
    <path d="M 36.24 135.6 
L 268.56 135.6 
L 268.56 101.36 
L 36.24 101.36 
z
" clip-path="url(#pb47c899035)" style="fill: #fff8cc; stroke: #998844; stroke-linejoin: miter"/>
   </g>
   <g id="patch_4">
    <path d="M 375.04 135.6 
L 607.36 135.6 
L 607.36 101.36 
L 375.04 101.36 
z
" clip-path="url(#pb47c899035)" style="fill: #fff8cc; stroke: #998844; stroke-linejoin: miter"/>
   </g>
   <g id="patch_5">
    <path d="M 713.84 135.6 
L 946.16 135.6 
L 946.16 101.36 
L 713.84 101.36 
z
" clip-path="url(#pb47c899035)" style="fill: #fff8cc; stroke: #998844; stroke-linejoin: miter"/>
   </g>
   <g id="patch_6">
    <path d="M 45.92 191.24 
L 258.88 191.24 
L 258.88 165.56 
L 45.92 165.56 
z
" clip-path="url(#pb47c899035)" style="fill: #fff2b8; stroke: #bb9933; stroke-linejoin: miter"/>
   </g>
   <g id="patch_7">
    <path d="M 384.72 191.24 
L 597.68 191.24 
L 597.68 165.56 
L 384.72 165.56 
z
" clip-path="url(#pb47c899035)" style="fill: #fff2b8; stroke: #bb9933; stroke-linejoin: miter"/>
   </g>
   <g id="patch_8">
    <path d="M 384.72 242.6 
L 597.68 242.6 
L 597.68 216.92 
L 384.72 216.92 
z
" clip-path="url(#pb47c899035)" style="fill: #fff2b8; stroke: #bb9933; stroke-linejoin: miter"/>
   </g>
   <g id="patch_9">
    <path d="M 723.52 191.24 
L 936.48 191.24 
L 936.48 165.56 
L 723.52 165.56 
z
" clip-path="url(#pb47c899035)" style="fill: #fff2b8; stroke: #bb9933; stroke-linejoin: miter"/>
   </g>
   <g id="patch_10">
    <path d="M 723.52 242.6 
L 936.48 242.6 
L 936.48 216.92 
L 723.52 216.92 
z
" clip-path="url(#pb47c899035)" style="fill: #fff2b8; stroke: #bb9933; stroke-linejoin: miter"/>
   </g>
   <g id="patch_11">
    <path d="M 45.92 242.6 
L 258.88 242.6 
L 258.88 216.92 
L 45.92 216.92 
z
" clip-path="url(#pb47c899035)" style="fill: #d9f2d9; stroke: #559955; stroke-linejoin: miter"/>
   </g>
   <g id="patch_12">
    <path d="M 384.72 293.96 
L 597.68 293.96 
L 597.68 268.28 
L 384.72 268.28 
z
" clip-path="url(#pb47c899035)" style="fill: #d9f2d9; stroke: #559955; stroke-linejoin: miter"/>
   </g>
   <g id="patch_13">
    <path d="M 723.52 293.96 
L 936.48 293.96 
L 936.48 268.28 
L 723.52 268.28 
z
" clip-path="url(#pb47c899035)" style="fill: #d9f2d9; stroke: #559955; stroke-linejoin: miter"/>
   </g>
   <g id="patch_14">
    <path d="M 55.6 400.96 
L 926.8 400.96 
L 926.8 341.04 
L 55.6 341.04 
z
" clip-path="url(#pb47c899035)" style="fill: #f8f8f8; stroke: #999999; stroke-linejoin: miter"/>
   </g>
   <g id="patch_15">
    <path d="M 94.32 366.72 
L 113.68 366.72 
L 113.68 358.16 
L 94.32 358.16 
z
" clip-path="url(#pb47c899035)" style="fill: #335599; stroke: #000000; stroke-linejoin: miter"/>
   </g>
   <g id="patch_16">
    <path d="M 268.56 366.72 
L 287.92 366.72 
L 287.92 358.16 
L 268.56 358.16 
z
" clip-path="url(#pb47c899035)" style="fill: #fff8cc; stroke: #000000; stroke-linejoin: miter"/>
   </g>
   <g id="patch_17">
    <path d="M 481.52 366.72 
L 500.88 366.72 
L 500.88 358.16 
L 481.52 358.16 
z
" clip-path="url(#pb47c899035)" style="fill: #fff2b8; stroke: #000000; stroke-linejoin: miter"/>
   </g>
   <g id="patch_18">
    <path d="M 713.84 366.72 
L 733.2 366.72 
L 733.2 358.16 
L 713.84 358.16 
z
" clip-path="url(#pb47c899035)" style="fill: #d9f2d9; stroke: #000000; stroke-linejoin: miter"/>
   </g>
   <g id="line2d_1">
    <path d="M 491.2 71.4 
L 152.4 101.36 
" clip-path="url(#pb47c899035)" style="fill: none; stroke: #000000; stroke-width: 1.5; stroke-linecap: square"/>
   </g>
   <g id="line2d_2">
    <path d="M 491.2 71.4 
L 491.2 101.36 
" clip-path="url(#pb47c899035)" style="fill: none; stroke: #000000; stroke-width: 1.5; stroke-linecap: square"/>
   </g>
   <g id="line2d_3">
    <path d="M 491.2 71.4 
L 830 101.36 
" clip-path="url(#pb47c899035)" style="fill: none; stroke: #000000; stroke-width: 1.5; stroke-linecap: square"/>
   </g>
   <g id="line2d_4">
    <path d="M 152.4 135.6 
L 152.4 165.56 
" clip-path="url(#pb47c899035)" style="fill: none; stroke: #000000; stroke-width: 1.5; stroke-linecap: square"/>
   </g>
   <g id="line2d_5">
    <path d="M 152.4 178.4 
L 152.4 216.92 
" clip-path="url(#pb47c899035)" style="fill: none; stroke: #000000; stroke-width: 1.5; stroke-linecap: square"/>
   </g>
   <g id="line2d_6">
    <path d="M 491.2 135.6 
L 491.2 165.56 
" clip-path="url(#pb47c899035)" style="fill: none; stroke: #000000; stroke-width: 1.5; stroke-linecap: square"/>
   </g>
   <g id="line2d_7">
    <path d="M 491.2 178.4 
L 491.2 216.92 
" clip-path="url(#pb47c899035)" style="fill: none; stroke: #000000; stroke-width: 1.5; stroke-linecap: square"/>
   </g>
   <g id="line2d_8">
    <path d="M 491.2 229.76 
L 491.2 268.28 
" clip-path="url(#pb47c899035)" style="fill: none; stroke: #000000; stroke-width: 1.5; stroke-linecap: square"/>
   </g>
   <g id="line2d_9">
    <path d="M 830 135.6 
L 830 165.56 
" clip-path="url(#pb47c899035)" style="fill: none; stroke: #000000; stroke-width: 1.5; stroke-linecap: square"/>
   </g>
   <g id="line2d_10">
    <path d="M 830 178.4 
L 830 216.92 
" clip-path="url(#pb47c899035)" style="fill: none; stroke: #000000; stroke-width: 1.5; stroke-linecap: square"/>
   </g>
   <g id="line2d_11">
    <path d="M 830 229.76 
L 830 268.28 
" clip-path="url(#pb47c899035)" style="fill: none; stroke: #000000; stroke-width: 1.5; stroke-linecap: square"/>
   </g>
   <g id="text_1">
    <text style="font-size: 10px; font-family: 'SimHei'; text-anchor: middle" x="491.2" y="50" transform="rotate(-0 491.2 50)">仿真器</text>
   </g>
   <g id="text_2">
    <text style="font-size: 10px; font-family: 'SimHei'; text-anchor: middle" x="152.4" y="118.48" transform="rotate(-0 152.4 118.48)">生物力学模型基类</text>
   </g>
   <g id="text_3">
    <text style="font-size: 10px; font-family: 'SimHei'; text-anchor: middle" x="491.2" y="118.48" transform="rotate(-0 491.2 118.48)">交互任务基类</text>
   </g>
   <g id="text_4">
    <text style="font-size: 10px; font-family: 'SimHei'; text-anchor: middle" x="830" y="118.48" transform="rotate(-0 830 118.48)">感知模块基类</text>
   </g>
   <g id="text_5">
    <text style="font-size: 10px; font-family: 'SimHei'; text-anchor: middle" x="152.4" y="178.4" transform="rotate(-0 152.4 178.4)">食指指点上肢模型</text>
   </g>
   <g id="text_6">
    <text style="font-size: 10px; font-family: 'SimHei'; text-anchor: middle" x="491.2" y="178.4" transform="rotate(-0 491.2 178.4)">指点任务</text>
   </g>
   <g id="text_7">
    <text style="font-size: 10px; font-family: 'SimHei'; text-anchor: middle" x="491.2" y="229.76" transform="rotate(-0 491.2 229.76)">跟踪任务</text>
   </g>
   <g id="text_8">
    <text style="font-size: 10px; font-family: 'SimHei'; text-anchor: middle" x="830" y="178.4" transform="rotate(-0 830 178.4)">视觉感知—固定相机</text>
   </g>
   <g id="text_9">
    <text style="font-size: 10px; font-family: 'SimHei'; text-anchor: middle" x="830" y="229.76" transform="rotate(-0 830 229.76)">本体感觉—含末端位置</text>
   </g>
   <g id="text_10">
    <text style="font-size: 10px; font-family: 'SimHei'; text-anchor: middle" x="152.4" y="229.76" transform="rotate(-0 152.4 229.76)">用户自定义派生类</text>
   </g>
   <g id="text_11">
    <text style="font-size: 10px; font-family: 'SimHei'; text-anchor: middle" x="491.2" y="281.12" transform="rotate(-0 491.2 281.12)">用户自定义派生类</text>
   </g>
   <g id="text_12">
    <text style="font-size: 10px; font-family: 'SimHei'; text-anchor: middle" x="830" y="281.12" transform="rotate(-0 830 281.12)">用户自定义感知通道</text>
   </g>
   <g id="text_13">
    <text style="font-size: 10px; font-family: 'SimHei'; text-anchor: start" x="152.4" y="365.838437" transform="rotate(-0 152.4 365.838437)">■ 仿真器顶层</text>
   </g>
   <g id="text_14">
    <text style="font-size: 10px; font-family: 'SimHei'; text-anchor: start" x="326.64" y="365.818906" transform="rotate(-0 326.64 365.818906)">■ 三大子模块基类</text>
   </g>
   <g id="text_15">
    <text style="font-size: 10px; font-family: 'SimHei'; text-anchor: start" x="539.6" y="365.818906" transform="rotate(-0 539.6 365.818906)">■ 框架内置实现</text>
   </g>
   <g id="text_16">
    <text style="font-size: 10px; font-family: 'SimHei'; text-anchor: start" x="771.92" y="365.8775" transform="rotate(-0 771.92 365.8775)">■ 用户自定义派生</text>
   </g>
   <g id="text_17">
    <text style="font-size: 10px; font-family: 'SimHei'; text-anchor: middle" x="491.2" y="388.12" transform="rotate(-0 491.2 388.12)">说明: 每个子模块基类向下派生出具体实现; 本研究主要在生物力学模型与交互任务两个维度上做适配，感知模块沿用框架默认实现。</text>
   </g>
  </g>
 </g>
 <defs>
  <clipPath id="pb47c899035">
   <rect x="7.2" y="7.2" width="968" height="428"/>
  </clipPath>
 </defs>
</svg>
