<?xml version="1.0" encoding="utf-8" standalone="no"?>
<!DOCTYPE svg PUBLIC "-//W3C//DTD SVG 1.1//EN"
  "http://www.w3.org/Graphics/SVG/1.1/DTD/svg11.dtd">
<svg xmlns:xlink="http://www.w3.org/1999/xlink" width="478.4pt" height="694.3175pt" viewBox="0 0 478.4 694.3175" xmlns="http://www.w3.org/2000/svg" version="1.1">
 <metadata>
  <rdf:RDF xmlns:dc="http://purl.org/dc/elements/1.1/" xmlns:cc="http://creativecommons.org/ns#" xmlns:rdf="http://www.w3.org/1999/02/22-rdf-syntax-ns#">
   <cc:Work>
    <dc:type rdf:resource="http://purl.org/dc/dcmitype/StillImage"/>
    <dc:date>2026-06-16T17:03:55.247032</dc:date>
    <dc:format>image/svg+xml</dc:format>
    <dc:creator>
     <cc:Agent>
      <dc:title>Matplotlib v3.10.8, https://matplotlib.org/</dc:title>
     </cc:Agent>
    </dc:creator>
   </cc:Work>
  </rdf:RDF>
 </metadata>
 <defs>
  <style type="text/css">*{stroke-linejoin: round; stroke-linecap: butt}</style>
 </defs>
 <g id="figure_1">
  <g id="patch_1">
   <path d="M 0 694.3175 
L 478.4 694.3175 
L 478.4 0 
L 0 0 
z
" style="fill: #ffffff"/>
  </g>
  <g id="axes_1">
   <g id="patch_2">
    <path d="M 239.2 76.0834 
C 252.735966 76.0834 265.719357 73.983974 275.29073 70.247495 
C 284.862104 66.511017 290.24 61.442553 290.24 56.158375 
C 290.24 50.874197 284.862104 45.805733 275.29073 42.069255 
C 265.719357 38.332776 252.735966 36.23335 239.2 36.23335 
C 225.664034 36.23335 212.680643 38.332776 203.10927 42.069255 
C 193.537896 45.805733 188.16 50.874197 188.16 56.158375 
C 188.16 61.442553 193.537896 66.511017 203.10927 70.247495 
C 212.680643 73.983974 225.664034 76.0834 239.2 76.0834 
z
" clip-path="url(#p4abb1c5c07)" style="fill: #e0ecff; stroke: #335599; stroke-linejoin: miter"/>
   </g>
   <g id="patch_3">
    <path d="M 151.04 155.7835 
L 327.36 155.7835 
L 327.36 109.291775 
L 151.04 109.291775 
z
" clip-path="url(#p4abb1c5c07)" style="fill: #fff8cc; stroke: #000000; stroke-linejoin: miter"/>
   </g>
   <g id="patch_4">
    <path d="M 151.04 222.20025 
L 327.36 222.20025 
L 327.36 175.708525 
L 151.04 175.708525 
z
" clip-path="url(#p4abb1c5c07)" style="fill: #fff8cc; stroke: #000000; stroke-linejoin: miter"/>
   </g>
   <g id="patch_5">
    <path d="M 155.68 268.691975 
L 239.2 235.4836 
L 322.72 268.691975 
L 239.2 301.90035 
z
" clip-path="url(#p4abb1c5c07)" style="fill: #ffe6e6; stroke: #bb4444; stroke-linejoin: miter"/>
   </g>
   <g id="patch_6">
    <path d="M 151.04 381.60045 
L 327.36 381.60045 
L 327.36 335.108725 
L 151.04 335.108725 
z
" clip-path="url(#p4abb1c5c07)" style="fill: #fff8cc; stroke: #000000; stroke-linejoin: miter"/>
   </g>
   <g id="patch_7">
    <path d="M 151.04 448.0172 
L 327.36 448.0172 
L 327.36 401.525475 
L 151.04 401.525475 
z
" clip-path="url(#p4abb1c5c07)" style="fill: #fff8cc; stroke: #000000; stroke-linejoin: miter"/>
   </g>
   <g id="patch_8">
    <path d="M 151.04 514.43395 
L 327.36 514.43395 
L 327.36 467.942225 
L 151.04 467.942225 
z
" clip-path="url(#p4abb1c5c07)" style="fill: #fff8cc; stroke: #000000; stroke-linejoin: miter"/>
   </g>
   <g id="patch_9">
    <path d="M 151.04 580.8507 
L 327.36 580.8507 
L 327.36 534.358975 
L 151.04 534.358975 
z
" clip-path="url(#p4abb1c5c07)" style="fill: #fff8cc; stroke: #000000; stroke-linejoin: miter"/>
   </g>
   <g id="patch_10">
    <path d="M 155.68 627.342425 
L 239.2 594.13405 
L 322.72 627.342425 
L 239.2 660.5508 
z
" clip-path="url(#p4abb1c5c07)" style="fill: #ffe6e6; stroke: #bb4444; stroke-linejoin: miter"/>
   </g>
   <g id="patch_11">
    <path d="M 53.6 660.5508 
C 64.674881 660.5508 75.297655 658.451374 83.128779 654.714895 
C 90.959903 650.978417 95.36 645.909953 95.36 640.625775 
C 95.36 635.341597 90.959903 630.273133 83.128779 626.536655 
C 75.297655 622.800176 64.674881 620.70075 53.6 620.70075 
C 42.525119 620.70075 31.902345 622.800176 24.071221 626.536655 
C 16.240097 630.273133 11.84 635.341597 11.84 640.625775 
C 11.84 645.909953 16.240097 650.978417 24.071221 654.714895 
C 31.902345 658.451374 42.525119 660.5508 53.6 660.5508 
z
" clip-path="url(#p4abb1c5c07)" style="fill: #e0ecff; stroke: #335599; stroke-linejoin: miter"/>
   </g>
   <g id="line2d_1">
    <path d="M 239.2 76.0834 
L 239.2 109.291775 
" clip-path="url(#p4abb1c5c07)" style="fill: none; stroke: #000000; stroke-width: 1.2; stroke-linecap: square"/>
   </g>
   <g id="line2d_2">
    <path d="M 239.2 155.7835 
L 239.2 175.708525 
" clip-path="url(#p4abb1c5c07)" style="fill: none; stroke: #000000; stroke-width: 1.2; stroke-linecap: square"/>
   </g>
   <g id="line2d_3">
    <path d="M 239.2 222.20025 
L 239.2 235.4836 
" clip-path="url(#p4abb1c5c07)" style="fill: none; stroke: #000000; stroke-width: 1.2; stroke-linecap: square"/>
   </g>
   <g id="line2d_4">
    <path d="M 155.68 301.90035 
L 53.6 301.90035 
" clip-path="url(#p4abb1c5c07)" style="fill: none; stroke: #000000; stroke-width: 1.2; stroke-linecap: square"/>
   </g>
   <g id="line2d_5">
    <path d="M 53.6 301.90035 
L 53.6 76.0834 
" clip-path="url(#p4abb1c5c07)" style="fill: none; stroke: #000000; stroke-width: 1.2; stroke-linecap: square"/>
   </g>
   <g id="line2d_6">
    <path d="M 53.6 76.0834 
L 183.52 76.0834 
" clip-path="url(#p4abb1c5c07)" style="fill: none; stroke: #000000; stroke-width: 1.2; stroke-linecap: square"/>
   </g>
   <g id="line2d_7">
    <path d="M 239.2 301.90035 
L 239.2 335.108725 
" clip-path="url(#p4abb1c5c07)" style="fill: none; stroke: #000000; stroke-width: 1.2; stroke-linecap: square"/>
   </g>
   <g id="line2d_8">
    <path d="M 239.2 381.60045 
L 239.2 414.808825 
" clip-path="url(#p4abb1c5c07)" style="fill: none; stroke: #000000; stroke-width: 1.2; stroke-linecap: square"/>
   </g>
   <g id="line2d_9">
    <path d="M 239.2 448.0172 
L 239.2 481.225575 
" clip-path="url(#p4abb1c5c07)" style="fill: none; stroke: #000000; stroke-width: 1.2; stroke-linecap: square"/>
   </g>
   <g id="line2d_10">
    <path d="M 239.2 514.43395 
L 239.2 547.642325 
" clip-path="url(#p4abb1c5c07)" style="fill: none; stroke: #000000; stroke-width: 1.2; stroke-linecap: square"/>
   </g>
   <g id="line2d_11">
    <path d="M 239.2 580.8507 
L 239.2 594.13405 
" clip-path="url(#p4abb1c5c07)" style="fill: none; stroke: #000000; stroke-width: 1.2; stroke-linecap: square"/>
   </g>
   <g id="line2d_12">
    <path d="M 239.2 660.5508 
L 415.52 660.5508 
" clip-path="url(#p4abb1c5c07)" style="fill: none; stroke: #000000; stroke-width: 1.2; stroke-linecap: square"/>
   </g>
   <g id="line2d_13">
    <path d="M 415.52 660.5508 
L 415.52 381.60045 
" clip-path="url(#p4abb1c5c07)" style="fill: none; stroke: #000000; stroke-width: 1.2; stroke-linecap: square"/>
   </g>
   <g id="line2d_14">
    <path d="M 415.52 381.60045 
L 322.72 381.60045 
" clip-path="url(#p4abb1c5c07)" style="fill: none; stroke: #000000; stroke-width: 1.2; stroke-linecap: square"/>
   </g>
   <g id="line2d_15">
    <path d="M 155.68 660.5508 
L 95.36 660.5508 
" clip-path="url(#p4abb1c5c07)" style="fill: none; stroke: #000000; stroke-width: 1.2; stroke-linecap: square"/>
   </g>
   <g id="text_1">
    <text style="font-size: 10px; font-family: 'SimHei'; text-anchor: middle" x="239.2" y="59.595875" transform="rotate(-0 239.2 59.595875)">系统启动</text>
   </g>
   <g id="text_2">
    <text style="font-size: 10px; font-family: 'SimHei'" transform="translate(209.2 130.510294)">加载配置文件</text>
    <text style="font-size: 10px; font-family: 'SimHei'" transform="translate(156.7 141.322794)">模型路径 / 参数 / 步长 / 引导轨迹</text>
   </g>
   <g id="text_3">
    <text style="font-size: 10px; font-family: 'SimHei'" transform="translate(204.2 196.895794)">初始化仿真环境</text>
    <text style="font-size: 10px; font-family: 'SimHei'" transform="translate(176.7 207.848919)">载入肌肉骨骼 + 方向盘模型</text>
   </g>
   <g id="text_4">
    <text style="font-size: 10px; font-family: 'SimHei'" transform="translate(219.2 266.688069)">物理参数</text>
    <text style="font-size: 10px; font-family: 'SimHei'" transform="translate(214.2 277.453694)">自检通过？</text>
   </g>
   <g id="text_5">
    <text style="font-size: 10px; font-family: 'SimHei'" transform="translate(199.2 356.202244)">获取肌肉激活信号</text>
    <text style="font-size: 10px; font-family: 'SimHei'" transform="translate(179.2 367.342869)">键盘指令 / 仿真生成 u(t)</text>
   </g>
   <g id="text_6">
    <text style="font-size: 10px; font-family: 'SimHei'" transform="translate(209.2 422.736181)">控制算法处理</text>
    <text style="font-size: 10px; font-family: 'SimHei'" transform="translate(176.7 433.642431)">滤波 / 死区 / 映射 / 限幅</text>
   </g>
   <g id="text_7">
    <text style="font-size: 10px; font-family: 'SimHei'" transform="translate(189.2 489.207619)">下发指令 → 仿真推进</text>
    <text style="font-size: 10px; font-family: 'SimHei'" transform="translate(204.2 500.160744)">驱动方向盘转动</text>
   </g>
   <g id="text_8">
    <text style="font-size: 10px; font-family: 'SimHei'" transform="translate(199.2 555.593119)">更新视觉引导界面</text>
    <text style="font-size: 10px; font-family: 'SimHei'" transform="translate(184.2 566.452494)">显示目标 / 实际 / 误差</text>
   </g>
   <g id="text_9">
    <text style="font-size: 10px; font-family: 'SimHei'; text-anchor: middle" x="239.2" y="630.760394" transform="rotate(-0 239.2 630.760394)">达到停止条件？</text>
   </g>
   <g id="text_10">
    <text style="font-size: 10px; font-family: 'SimHei'; text-anchor: middle" x="53.6" y="644.043744" transform="rotate(-0 53.6 644.043744)">输出评估结果</text>
   </g>
   <g id="patch_12">
    <path d="M 239.2 78.081902 
Q 239.2 92.686766 239.2 105.94999 
" style="fill: none; stroke: #000000; stroke-width: 1.2; stroke-linecap: round"/>
    <path d="M 241.2 101.94999 
L 239.2 105.94999 
L 237.2 101.94999 
" style="fill: none; stroke: #000000; stroke-width: 1.2; stroke-linecap: round"/>
   </g>
   <g id="patch_13">
    <path d="M 239.2 157.782813 
Q 239.2 165.745663 239.2 172.366872 
" style="fill: none; stroke: #000000; stroke-width: 1.2; stroke-linecap: round"/>
    <path d="M 241.2 168.366872 
L 239.2 172.366872 
L 237.2 168.366872 
" style="fill: none; stroke: #000000; stroke-width: 1.2; stroke-linecap: round"/>
   </g>
   <g id="patch_14">
    <path d="M 239.2 224.201184 
Q 239.2 228.841133 239.2 232.139441 
" style="fill: none; stroke: #000000; stroke-width: 1.2; stroke-linecap: round"/>
    <path d="M 241.2 228.139441 
L 239.2 232.139441 
L 237.2 228.139441 
" style="fill: none; stroke: #000000; stroke-width: 1.2; stroke-linecap: round"/>
   </g>
   <g id="patch_15">
    <path d="M 239.2 303.898852 
Q 239.2 318.503716 239.2 331.76694 
" style="fill: none; stroke: #000000; stroke-width: 1.2; stroke-linecap: round"/>
    <path d="M 241.2 327.76694 
L 239.2 331.76694 
L 237.2 327.76694 
" style="fill: none; stroke: #000000; stroke-width: 1.2; stroke-linecap: round"/>
   </g>
   <g id="patch_16">
    <path d="M 239.2 383.598952 
Q 239.2 398.203816 239.2 411.46704 
" style="fill: none; stroke: #000000; stroke-width: 1.2; stroke-linecap: round"/>
    <path d="M 241.2 407.46704 
L 239.2 411.46704 
L 237.2 407.46704 
" style="fill: none; stroke: #000000; stroke-width: 1.2; stroke-linecap: round"/>
   </g>
   <g id="patch_17">
    <path d="M 239.2 450.015702 
Q 239.2 464.620566 239.2 477.88379 
" style="fill: none; stroke: #000000; stroke-width: 1.2; stroke-linecap: round"/>
    <path d="M 241.2 473.88379 
L 239.2 477.88379 
L 237.2 473.88379 
" style="fill: none; stroke: #000000; stroke-width: 1.2; stroke-linecap: round"/>
   </g>
   <g id="patch_18">
    <path d="M 239.2 516.432452 
Q 239.2 531.037316 239.2 544.30054 
" style="fill: none; stroke: #000000; stroke-width: 1.2; stroke-linecap: round"/>
    <path d="M 241.2 540.30054 
L 239.2 544.30054 
L 237.2 540.30054 
" style="fill: none; stroke: #000000; stroke-width: 1.2; stroke-linecap: round"/>
   </g>
   <g id="patch_19">
    <path d="M 239.2 582.851634 
Q 239.2 587.491583 239.2 590.789891 
" style="fill: none; stroke: #000000; stroke-width: 1.2; stroke-linecap: round"/>
    <path d="M 241.2 586.789891 
L 239.2 590.789891 
L 237.2 586.789891 
" style="fill: none; stroke: #000000; stroke-width: 1.2; stroke-linecap: round"/>
   </g>
   <g id="patch_20">
    <path d="M 237.19917 660.5508 
Q 197.43718 660.5508 159.01683 660.5508 
" style="fill: none; stroke: #000000; stroke-width: 1.2; stroke-linecap: round"/>
    <path d="M 163.01683 662.5508 
L 159.01683 660.5508 
L 163.01683 658.5508 
" style="fill: none; stroke: #000000; stroke-width: 1.2; stroke-linecap: round"/>
   </g>
   <g id="patch_21">
    <path d="M 53.6 299.898402 
Q 53.6 188.989831 53.6 79.422901 
" style="fill: none; stroke: #000000; stroke-width: 1.2; stroke-linecap: round"/>
    <path d="M 51.6 83.422901 
L 53.6 79.422901 
L 55.6 83.422901 
" style="fill: none; stroke: #000000; stroke-width: 1.2; stroke-linecap: round"/>
   </g>
   <g id="patch_22">
    <path d="M 413.517754 381.60045 
Q 369.117796 381.60045 326.05948 381.60045 
" style="fill: none; stroke: #000000; stroke-width: 1.2; stroke-linecap: round"/>
    <path d="M 330.05948 383.60045 
L 326.05948 381.60045 
L 330.05948 379.60045 
" style="fill: none; stroke: #000000; stroke-width: 1.2; stroke-linecap: round"/>
   </g>
   <g id="text_11">
    <text style="font-size: 10px; font-family: 'SimHei'; text-anchor: start" x="76.8" y="222.20025" transform="rotate(-0 76.8 222.20025)">否</text>
   </g>
   <g id="text_12">
    <text style="font-size: 10px; font-family: 'SimHei'; text-anchor: start" x="202.08" y="321.825375" transform="rotate(-0 202.08 321.825375)">是</text>
   </g>
   <g id="text_13">
    <text style="font-size: 10px; font-family: 'SimHei'; text-anchor: start" x="378.4" y="633.9841" transform="rotate(-0 378.4 633.9841)">否</text>
   </g>
   <g id="text_14">
    <text style="font-size: 10px; font-family: 'SimHei'; text-anchor: start" x="76.8" y="633.9841" transform="rotate(-0 76.8 633.9841)">是</text>
   </g>
   <g id="text_15">
    <text style="font-size: 10px; font-family: 'SimHei'; text-anchor: middle" x="239.2" y="348.392075" transform="rotate(-0 239.2 348.392075)">— 进入主循环 —</text>
   </g>
   <g id="text_16">
    <text style="font-size: 12px; font-family: 'SimHei'; text-anchor: middle" x="239.2" y="16.95" transform="rotate(-0 239.2 16.95)">系统工作流程</text>
   </g>
  </g>
 </g>
 <defs>
  <clipPath id="p4abb1c5c07">
   <rect x="7.2" y="22.95" width="464" height="664.1675"/>
  </clipPath>
 </defs>
</svg>
