<?xml version="1.0" encoding="utf-8" standalone="no"?>
<!DOCTYPE svg PUBLIC "-//W3C//DTD SVG 1.1//EN"
  "http://www.w3.org/Graphics/SVG/1.1/DTD/svg11.dtd">
<svg xmlns:xlink="http://www.w3.org/1999/xlink" width="1142.66pt" height="423.256094pt" viewBox="0 0 1142.66 423.256094" xmlns="http://www.w3.org/2000/svg" version="1.1">
 <metadata>
  <rdf:RDF xmlns:dc="http://purl.org/dc/elements/1.1/" xmlns:cc="http://creativecommons.org/ns#" xmlns:rdf="http://www.w3.org/1999/02/22-rdf-syntax-ns#">
   <cc:Work>
    <dc:type rdf:resource="http://purl.org/dc/dcmitype/StillImage"/>
    <dc:date>2026-06-16T16:26:08.025543</dc:date>
    <dc:format>image/svg+xml</dc:format>
    <dc:creator>
     <cc:Agent>
      <dc:title>Matplotlib v3.10.8, https://matplotlib.org/</dc:title>
     </cc:Agent>
    </dc:creator>
   </cc:Work>
  </rdf:RDF>
 </metadata>
 <defs>
  <style type="text/css">*{stroke-linejoin: round; stroke-linecap: butt}</style>
 </defs>
 <g id="figure_1">
  <g id="patch_1">
   <path d="M 0 423.256094 
L 1142.66 423.256094 
L 1142.66 0 
L 0 0 
z
" style="fill: #ffffff"/>
  </g>
  <g id="axes_1">
   <g id="patch_2">
    <path d="M 43.54 386.7475 
L 1135.46 386.7475 
L 1135.46 27.925 
L 43.54 27.925 
z
" style="fill: #ffffff"/>
   </g>
   <g id="matplotlib.axis_1">
    <g id="xtick_1">
     <g id="line2d_1">
      <path d="M 93.172727 386.7475 
L 93.172727 27.925 
" clip-path="url(#p43dc6b9404)" style="fill: none; stroke: #b0b0b0; stroke-opacity: 0.35; stroke-width: 0.8; stroke-linecap: square"/>
     </g>
     <g id="line2d_2">
      <defs>
       <path id="me33c1eeb9b" d="M 0 0 
L 0 3.5 
" style="stroke: #000000; stroke-width: 0.8"/>
      </defs>
      <g>
       <use xlink:href="#me33c1eeb9b" x="93.172727" y="386.7475" style="stroke: #000000; stroke-width: 0.8"/>
      </g>
     </g>
     <g id="text_1">
      <text style="font-size: 10px; font-family: 'SimHei'; text-anchor: middle" x="93.172727" y="400.6225" transform="rotate(-0 93.172727 400.6225)">0</text>
     </g>
    </g>
    <g id="xtick_2">
     <g id="line2d_3">
      <path d="M 291.703636 386.7475 
L 291.703636 27.925 
" clip-path="url(#p43dc6b9404)" style="fill: none; stroke: #b0b0b0; stroke-opacity: 0.35; stroke-width: 0.8; stroke-linecap: square"/>
     </g>
     <g id="line2d_4">
      <g>
       <use xlink:href="#me33c1eeb9b" x="291.703636" y="386.7475" style="stroke: #000000; stroke-width: 0.8"/>
      </g>
     </g>
     <g id="text_2">
      <text style="font-size: 10px; font-family: 'SimHei'; text-anchor: middle" x="291.703636" y="400.6225" transform="rotate(-0 291.703636 400.6225)">2</text>
     </g>
    </g>
    <g id="xtick_3">
     <g id="line2d_5">
      <path d="M 490.234545 386.7475 
L 490.234545 27.925 
" clip-path="url(#p43dc6b9404)" style="fill: none; stroke: #b0b0b0; stroke-opacity: 0.35; stroke-width: 0.8; stroke-linecap: square"/>
     </g>
     <g id="line2d_6">
      <g>
       <use xlink:href="#me33c1eeb9b" x="490.234545" y="386.7475" style="stroke: #000000; stroke-width: 0.8"/>
      </g>
     </g>
     <g id="text_3">
      <text style="font-size: 10px; font-family: 'SimHei'; text-anchor: middle" x="490.234545" y="400.6225" transform="rotate(-0 490.234545 400.6225)">4</text>
     </g>
    </g>
    <g id="xtick_4">
     <g id="line2d_7">
      <path d="M 688.765455 386.7475 
L 688.765455 27.925 
" clip-path="url(#p43dc6b9404)" style="fill: none; stroke: #b0b0b0; stroke-opacity: 0.35; stroke-width: 0.8; stroke-linecap: square"/>
     </g>
     <g id="line2d_8">
      <g>
       <use xlink:href="#me33c1eeb9b" x="688.765455" y="386.7475" style="stroke: #000000; stroke-width: 0.8"/>
      </g>
     </g>
     <g id="text_4">
      <text style="font-size: 10px; font-family: 'SimHei'; text-anchor: middle" x="688.765455" y="400.6225" transform="rotate(-0 688.765455 400.6225)">6</text>
     </g>
    </g>
    <g id="xtick_5">
     <g id="line2d_9">
      <path d="M 887.296364 386.7475 
L 887.296364 27.925 
" clip-path="url(#p43dc6b9404)" style="fill: none; stroke: #b0b0b0; stroke-opacity: 0.35; stroke-width: 0.8; stroke-linecap: square"/>
     </g>
     <g id="line2d_10">
      <g>
       <use xlink:href="#me33c1eeb9b" x="887.296364" y="386.7475" style="stroke: #000000; stroke-width: 0.8"/>
      </g>
     </g>
     <g id="text_5">
      <text style="font-size: 10px; font-family: 'SimHei'; text-anchor: middle" x="887.296364" y="400.6225" transform="rotate(-0 887.296364 400.6225)">8</text>
     </g>
    </g>
    <g id="xtick_6">
     <g id="line2d_11">
      <path d="M 1085.827273 386.7475 
L 1085.827273 27.925 
" clip-path="url(#p43dc6b9404)" style="fill: none; stroke: #b0b0b0; stroke-opacity: 0.35; stroke-width: 0.8; stroke-linecap: square"/>
     </g>
     <g id="line2d_12">
      <g>
       <use xlink:href="#me33c1eeb9b" x="1085.827273" y="386.7475" style="stroke: #000000; stroke-width: 0.8"/>
      </g>
     </g>
     <g id="text_6">
      <text style="font-size: 10px; font-family: 'SimHei'; text-anchor: middle" x="1085.827273" y="400.6225" transform="rotate(-0 1085.827273 400.6225)">10</text>
     </g>
    </g>
    <g id="text_7">
     <text style="font-size: 11px; font-family: 'SimHei'; text-anchor: middle" x="589.5" y="414.681094" transform="rotate(-0 589.5 414.681094)">时间 (s)</text>
    </g>
   </g>
   <g id="matplotlib.axis_2">
    <g id="ytick_1">
     <g id="line2d_13">
      <path d="M 43.54 340.397193 
L 1135.46 340.397193 
" clip-path="url(#p43dc6b9404)" style="fill: none; stroke: #b0b0b0; stroke-opacity: 0.35; stroke-width: 0.8; stroke-linecap: square"/>
     </g>
     <g id="line2d_14">
      <defs>
       <path id="m8d30b99f25" d="M 0 0 
L -3.5 0 
" style="stroke: #000000; stroke-width: 0.8"/>
      </defs>
      <g>
       <use xlink:href="#m8d30b99f25" x="43.54" y="340.397193" style="stroke: #000000; stroke-width: 0.8"/>
      </g>
     </g>
     <g id="text_8">
      <text style="font-size: 10px; font-family: 'SimHei'; text-anchor: end" x="36.54" y="343.834693" transform="rotate(-0 36.54 343.834693)">-40</text>
     </g>
    </g>
    <g id="ytick_2">
     <g id="line2d_15">
      <path d="M 43.54 274.273311 
L 1135.46 274.273311 
" clip-path="url(#p43dc6b9404)" style="fill: none; stroke: #b0b0b0; stroke-opacity: 0.35; stroke-width: 0.8; stroke-linecap: square"/>
     </g>
     <g id="line2d_16">
      <g>
       <use xlink:href="#m8d30b99f25" x="43.54" y="274.273311" style="stroke: #000000; stroke-width: 0.8"/>
      </g>
     </g>
     <g id="text_9">
      <text style="font-size: 10px; font-family: 'SimHei'; text-anchor: end" x="36.54" y="277.710811" transform="rotate(-0 36.54 277.710811)">-20</text>
     </g>
    </g>
    <g id="ytick_3">
     <g id="line2d_17">
      <path d="M 43.54 208.14943 
L 1135.46 208.14943 
" clip-path="url(#p43dc6b9404)" style="fill: none; stroke: #b0b0b0; stroke-opacity: 0.35; stroke-width: 0.8; stroke-linecap: square"/>
     </g>
     <g id="line2d_18">
      <g>
       <use xlink:href="#m8d30b99f25" x="43.54" y="208.14943" style="stroke: #000000; stroke-width: 0.8"/>
      </g>
     </g>
     <g id="text_10">
      <text style="font-size: 10px; font-family: 'SimHei'; text-anchor: end" x="36.54" y="211.58693" transform="rotate(-0 36.54 211.58693)">0</text>
     </g>
    </g>
    <g id="ytick_4">
     <g id="line2d_19">
      <path d="M 43.54 142.025549 
L 1135.46 142.025549 
" clip-path="url(#p43dc6b9404)" style="fill: none; stroke: #b0b0b0; stroke-opacity: 0.35; stroke-width: 0.8; stroke-linecap: square"/>
     </g>
     <g id="line2d_20">
      <g>
       <use xlink:href="#m8d30b99f25" x="43.54" y="142.025549" style="stroke: #000000; stroke-width: 0.8"/>
      </g>
     </g>
     <g id="text_11">
      <text style="font-size: 10px; font-family: 'SimHei'; text-anchor: end" x="36.54" y="145.463049" transform="rotate(-0 36.54 145.463049)">20</text>
     </g>
    </g>
    <g id="ytick_5">
     <g id="line2d_21">
      <path d="M 43.54 75.901667 
L 1135.46 75.901667 
" clip-path="url(#p43dc6b9404)" style="fill: none; stroke: #b0b0b0; stroke-opacity: 0.35; stroke-width: 0.8; stroke-linecap: square"/>
     </g>
     <g id="line2d_22">
      <g>
       <use xlink:href="#m8d30b99f25" x="43.54" y="75.901667" style="stroke: #000000; stroke-width: 0.8"/>
      </g>
     </g>
     <g id="text_12">
      <text style="font-size: 10px; font-family: 'SimHei'; text-anchor: end" x="36.54" y="79.339167" transform="rotate(-0 36.54 79.339167)">40</text>
     </g>
    </g>
    <g id="text_13">
     <!-- 方向盘角度 ($^\circ$) -->
     <g transform="translate(16.165 247.21125) rotate(-90)">
      <text>
       <tspan x="0" y="-0.9375" style="font-size: 11px; font-family: 'SimHei'">方</tspan>
       <tspan x="11" y="-0.9375" style="font-size: 11px; font-family: 'SimHei'">向</tspan>
       <tspan x="22" y="-0.9375" style="font-size: 11px; font-family: 'SimHei'">盘</tspan>
       <tspan x="33" y="-0.9375" style="font-size: 11px; font-family: 'SimHei'">角</tspan>
       <tspan x="44" y="-0.9375" style="font-size: 11px; font-family: 'SimHei'">度</tspan>
       <tspan x="55" y="-0.9375" style="font-size: 11px; font-family: 'SimHei'"> </tspan>
       <tspan x="60.5" y="-0.9375" style="font-size: 11px; font-family: 'SimHei'">(</tspan>
       <tspan x="74.226367" y="-0.9375" style="font-size: 11px; font-family: 'SimHei'">)</tspan>
       <tspan x="67.60542" y="-5.148438" style="font-size: 7.7px; font-family: 'DejaVu Sans'">∘</tspan>
      </text>
     </g>
    </g>
   </g>
   <g id="line2d_23">
    <path d="M 93.172727 208.14943 
L 122.977201 180.899268 
L 138.707339 166.817664 
L 151.953772 155.243955 
L 163.544401 145.392545 
L 174.307127 136.519492 
L 184.241952 128.597114 
L 194.176776 120.961516 
L 203.283699 114.237674 
L 212.390621 107.798318 
L 220.669641 102.207657 
L 228.948662 96.882237 
L 237.227682 91.835391 
L 244.678801 87.541869 
L 252.129919 83.492943 
L 259.581037 79.696825 
L 267.032156 76.161213 
L 274.483274 72.893279 
L 281.10649 70.218535 
L 287.729707 67.764819 
L 294.352923 65.536063 
L 300.976139 63.535839 
L 307.599356 61.767352 
L 314.222572 60.233436 
L 320.845788 58.936548 
L 327.469004 57.878768 
L 334.092221 57.061789 
L 340.715437 56.486922 
L 347.338653 56.155088 
L 353.96187 56.066818 
L 360.585086 56.222253 
L 367.208302 56.621145 
L 373.831519 57.262855 
L 380.454735 58.146353 
L 387.077951 59.270225 
L 393.701168 60.632669 
L 400.324384 62.231503 
L 406.9476 64.064163 
L 413.570817 66.127714 
L 420.194033 68.418848 
L 426.817249 70.933894 
L 433.440466 73.668822 
L 440.891584 77.002974 
L 448.342702 80.603095 
L 455.793821 84.461885 
L 463.244939 88.571517 
L 470.696057 92.923659 
L 478.975078 98.033043 
L 487.254098 103.41812 
L 495.533119 109.065407 
L 504.640041 115.563383 
L 513.746963 122.341829 
L 523.681788 130.032221 
L 533.616612 138.004219 
L 544.379339 146.924983 
L 555.969967 156.820517 
L 569.2164 168.435172 
L 584.118637 181.802043 
L 604.816188 200.697895 
L 644.555486 237.048928 
L 660.285624 251.093672 
L 673.532057 262.625025 
L 685.122686 272.431111 
L 695.885412 281.255373 
L 705.820237 289.127167 
L 715.755061 296.707041 
L 724.861983 303.37546 
L 733.968906 309.755412 
L 742.247926 315.288766 
L 750.526947 320.553881 
L 758.805967 325.537574 
L 766.257085 329.771955 
L 773.708204 333.759681 
L 781.159322 337.492665 
L 788.610441 340.963336 
L 796.061559 344.164656 
L 802.684775 346.77889 
L 809.307992 349.170977 
L 815.931208 351.337083 
L 822.554424 353.273737 
L 829.17764 354.977835 
L 835.800857 356.446648 
L 842.424073 357.677821 
L 849.047289 358.669381 
L 855.670506 359.419739 
L 862.293722 359.927694 
L 868.916938 360.19243 
L 875.540155 360.213525 
L 882.163371 359.990943 
L 888.786587 359.525042 
L 895.409804 358.816568 
L 902.03302 357.866657 
L 908.656236 356.676831 
L 915.279453 355.248996 
L 921.902669 353.58544 
L 928.525885 351.688829 
L 935.149102 349.562203 
L 941.772318 347.20897 
L 948.395534 344.632899 
L 955.01875 341.83812 
L 962.469869 338.438157 
L 969.920987 334.773965 
L 977.372106 330.852973 
L 984.823224 326.683134 
L 992.274342 322.272904 
L 1000.553363 317.101604 
L 1008.832383 311.657525 
L 1017.111403 305.954299 
L 1026.218326 299.398494 
L 1035.325248 292.56627 
L 1045.260073 284.822021 
L 1055.194897 276.801373 
L 1065.957624 267.833986 
L 1077.548252 257.895531 
L 1085.827273 250.644316 
L 1085.827273 250.644316 
" clip-path="url(#p43dc6b9404)" style="fill: none; stroke: #0033cc; stroke-width: 1.6; stroke-linecap: square"/>
   </g>
   <g id="line2d_24">
    <path d="M 93.172727 206.715812 
L 94.000629 212.527806 
L 94.828531 210.062837 
L 95.656433 204.14183 
L 96.484335 206.229775 
L 97.312237 205.877637 
L 98.14014 205.112155 
L 98.968042 199.705249 
L 99.795944 196.136888 
L 100.623846 199.866358 
L 101.451748 205.592785 
L 102.27965 201.328217 
L 103.107552 198.466092 
L 103.935454 190.811425 
L 104.763356 204.238399 
L 105.591258 195.717225 
L 106.41916 194.366969 
L 107.247062 191.674868 
L 108.074964 196.425907 
L 108.902866 195.601927 
L 109.730768 183.586806 
L 110.55867 192.513928 
L 111.386572 187.823492 
L 112.214474 192.065347 
L 113.042376 188.139628 
L 113.870278 181.580413 
L 114.69818 192.32362 
L 115.526082 184.157128 
L 116.353984 177.464087 
L 117.181886 185.396742 
L 118.009788 182.703146 
L 118.83769 190.123363 
L 119.665593 190.070504 
L 120.493495 184.131091 
L 121.321397 182.310754 
L 122.149299 193.080241 
L 122.977201 176.948918 
L 123.805103 175.082477 
L 124.633005 174.692946 
L 125.460907 174.548261 
L 126.288809 176.259861 
L 127.944613 187.329551 
L 128.772515 175.886497 
L 129.600417 172.209866 
L 130.428319 176.049608 
L 131.256221 171.309018 
L 132.084123 174.500551 
L 132.912025 170.006719 
L 133.739927 162.348057 
L 134.567829 171.512098 
L 135.395731 167.013391 
L 136.223633 168.768705 
L 137.051535 162.405853 
L 138.707339 167.958002 
L 139.535241 163.196656 
L 140.363144 173.50411 
L 141.191046 153.981582 
L 142.018948 154.899508 
L 142.84685 166.962244 
L 143.674752 165.677598 
L 144.502654 159.315472 
L 145.330556 164.91459 
L 146.158458 155.499523 
L 146.98636 161.658952 
L 147.814262 155.689364 
L 148.642164 160.551916 
L 149.470066 166.465884 
L 150.297968 158.111656 
L 151.12587 143.750555 
L 151.953772 155.449807 
L 152.781674 161.732056 
L 153.609576 150.217525 
L 154.437478 151.879969 
L 155.26538 155.187893 
L 156.093282 149.707881 
L 156.921184 147.425092 
L 157.749086 150.275369 
L 158.576988 147.894533 
L 159.40489 155.876011 
L 160.232792 155.706551 
L 161.060695 154.014805 
L 161.888597 151.168697 
L 162.716499 147.312115 
L 163.544401 147.759109 
L 164.372303 153.022802 
L 165.200205 154.705133 
L 166.028107 135.511619 
L 166.856009 148.801855 
L 167.683911 148.016748 
L 168.511813 142.777537 
L 169.339715 143.195123 
L 170.167617 146.860569 
L 170.995519 136.927759 
L 171.823421 139.514178 
L 172.651323 135.810474 
L 173.479225 143.2646 
L 174.307127 139.316617 
L 175.135029 138.707432 
L 175.962931 134.07074 
L 176.790833 136.792829 
L 177.618735 127.754831 
L 178.446637 138.931997 
L 179.274539 127.061767 
L 180.102441 131.617774 
L 180.930343 129.613672 
L 181.758246 137.039009 
L 182.586148 133.973477 
L 183.41405 128.411804 
L 184.241952 129.589382 
L 185.069854 129.583426 
L 185.897756 126.205176 
L 186.725658 120.58912 
L 187.55356 123.800871 
L 188.381462 127.803672 
L 189.209364 129.433694 
L 190.037266 124.21076 
L 190.865168 125.041715 
L 191.69307 133.949574 
L 192.520972 118.985575 
L 193.348874 124.887708 
L 194.176776 118.803134 
L 195.004678 124.912448 
L 195.83258 121.982956 
L 196.660482 117.824367 
L 198.316286 125.999696 
L 199.144188 108.797243 
L 200.799992 125.597379 
L 201.627894 113.098318 
L 202.455796 113.737838 
L 203.283699 118.185077 
L 204.111601 105.035771 
L 204.939503 116.428047 
L 205.767405 115.434328 
L 206.595307 113.708105 
L 207.423209 112.378163 
L 208.251111 115.221383 
L 209.079013 104.358037 
L 209.906915 103.990983 
L 210.734817 101.70018 
L 211.562719 114.906074 
L 212.390621 109.15735 
L 213.218523 110.931607 
L 214.046425 103.163542 
L 214.874327 98.511396 
L 215.702229 103.124468 
L 216.530131 104.220922 
L 217.358033 106.476375 
L 218.185935 106.020141 
L 219.013837 99.252619 
L 219.841739 108.120933 
L 220.669641 97.531877 
L 221.497543 103.151083 
L 222.325445 98.227835 
L 223.153347 103.444269 
L 223.98125 93.102209 
L 224.809152 102.289856 
L 225.637054 105.388742 
L 226.464956 94.634938 
L 227.292858 101.20415 
L 228.12076 101.802228 
L 228.948662 93.250817 
L 229.776564 94.714687 
L 230.604466 99.704288 
L 231.432368 90.210229 
L 232.26027 98.796519 
L 233.088172 97.545408 
L 233.916074 83.91108 
L 234.743976 93.349799 
L 235.571878 87.219572 
L 236.39978 91.051904 
L 237.227682 88.524065 
L 238.055584 86.619251 
L 238.883486 92.473979 
L 239.711388 78.541194 
L 240.53929 88.753664 
L 241.367192 94.081515 
L 242.195094 92.966272 
L 243.022996 87.799805 
L 243.850898 81.25595 
L 244.678801 90.622739 
L 245.506703 88.955793 
L 246.334605 83.121992 
L 247.162507 84.495816 
L 247.990409 79.604156 
L 248.818311 88.818937 
L 250.474115 80.558482 
L 251.302017 86.450305 
L 252.129919 73.53607 
L 252.957821 81.846677 
L 253.785723 87.486151 
L 254.613625 81.007358 
L 256.269429 89.134239 
L 257.097331 82.029576 
L 257.925233 81.372416 
L 258.753135 71.30699 
L 259.581037 77.689391 
L 260.408939 79.074081 
L 261.236841 74.284288 
L 262.064743 81.136471 
L 262.892645 68.036273 
L 263.720547 76.51049 
L 264.548449 75.920452 
L 265.376352 76.711796 
L 266.204254 77.914092 
L 267.032156 77.124129 
L 267.860058 87.891402 
L 268.68796 76.334924 
L 269.515862 75.528128 
L 270.343764 80.874351 
L 271.171666 78.334689 
L 271.999568 76.4142 
L 272.82747 59.516885 
L 273.655372 72.102629 
L 274.483274 65.1476 
L 275.311176 79.543024 
L 276.139078 76.347106 
L 276.96698 76.2853 
L 277.794882 77.008777 
L 278.622784 67.466802 
L 279.450686 69.37047 
L 280.278588 71.906661 
L 281.10649 69.220823 
L 281.934392 74.061264 
L 282.762294 62.3472 
L 283.590196 64.978426 
L 284.418098 76.583887 
L 285.246 65.874642 
L 286.073902 62.44489 
L 286.901805 69.715799 
L 287.729707 68.922456 
L 288.557609 63.327363 
L 289.385511 74.300538 
L 290.213413 69.289658 
L 291.041315 61.227771 
L 292.697119 70.887173 
L 293.525021 60.515453 
L 294.352923 66.11 
L 295.180825 67.239744 
L 296.008727 64.047511 
L 296.836629 56.751634 
L 297.664531 59.910442 
L 298.492433 65.465916 
L 299.320335 56.655545 
L 300.148237 61.900363 
L 300.976139 63.481662 
L 301.804041 57.079957 
L 302.631943 62.517426 
L 303.459845 57.036905 
L 304.287747 56.875105 
L 305.115649 59.644469 
L 305.943551 61.420794 
L 306.771453 59.21305 
L 307.599356 60.928212 
L 308.427258 59.464223 
L 309.25516 62.437346 
L 310.083062 60.529957 
L 310.910964 57.188544 
L 311.738866 57.272987 
L 312.566768 59.548448 
L 313.39467 59.594864 
L 314.222572 66.35709 
L 315.050474 59.603314 
L 315.878376 57.397356 
L 316.706278 59.822512 
L 317.53418 66.188645 
L 318.362082 56.362734 
L 319.189984 54.875578 
L 320.017886 52.933766 
L 320.845788 60.390192 
L 321.67369 53.635108 
L 322.501592 67.181287 
L 323.329494 61.549981 
L 324.157396 65.99583 
L 324.985298 51.128159 
L 325.8132 61.032942 
L 326.641102 62.381214 
L 327.469004 53.736822 
L 328.296907 64.732752 
L 329.124809 58.889646 
L 329.952711 57.937855 
L 330.780613 58.663181 
L 331.608515 51.279546 
L 332.436417 62.703393 
L 333.264319 52.247178 
L 334.092221 51.641796 
L 334.920123 51.977861 
L 335.748025 55.713337 
L 336.575927 58.850884 
L 337.403829 57.207518 
L 338.231731 52.82636 
L 339.059633 54.932829 
L 339.887535 48.122007 
L 340.715437 55.317214 
L 341.543339 65.764117 
L 342.371241 57.546968 
L 343.199143 52.424835 
L 344.027045 53.885995 
L 344.854947 56.427169 
L 345.682849 55.98884 
L 346.510751 65.267992 
L 347.338653 55.961272 
L 348.166555 49.955267 
L 348.994458 56.702663 
L 349.82236 58.110563 
L 350.650262 56.543641 
L 351.478164 52.70729 
L 352.306066 54.718463 
L 353.133968 45.630858 
L 353.96187 63.607163 
L 354.789772 59.09542 
L 355.617674 50.64692 
L 356.445576 50.721651 
L 357.273478 57.324219 
L 358.10138 59.710204 
L 358.929282 58.084675 
L 359.757184 58.036401 
L 360.585086 49.738418 
L 361.412988 50.286852 
L 362.24089 51.165886 
L 363.068792 50.042458 
L 363.896694 58.149486 
L 364.724596 59.213441 
L 365.552498 55.584822 
L 366.3804 57.828409 
L 367.208302 51.379637 
L 368.036204 54.655233 
L 368.864106 54.349297 
L 369.692008 51.061283 
L 370.519911 59.504623 
L 371.347813 64.675709 
L 372.175715 53.185887 
L 373.003617 59.537337 
L 373.831519 64.96985 
L 374.659421 54.634033 
L 375.487323 55.5422 
L 376.315225 48.971817 
L 377.143127 55.776425 
L 377.971029 56.914166 
L 378.798931 63.053745 
L 379.626833 60.3039 
L 380.454735 64.726244 
L 381.282637 55.91842 
L 382.110539 60.372926 
L 382.938441 57.767183 
L 383.766343 56.68734 
L 384.594245 68.969459 
L 385.422147 60.919568 
L 386.250049 66.816135 
L 387.077951 44.235114 
L 387.905853 65.603253 
L 388.733755 62.427956 
L 389.561657 58.78073 
L 390.389559 57.828511 
L 391.217462 59.951284 
L 392.873266 67.498279 
L 393.701168 63.710402 
L 394.52907 64.848222 
L 395.356972 62.041579 
L 396.184874 60.732086 
L 397.012776 55.859611 
L 397.840678 64.751505 
L 398.66858 57.247978 
L 399.496482 58.969829 
L 400.324384 55.330169 
L 401.980188 64.045483 
L 402.80809 71.545138 
L 403.635992 59.956 
L 404.463894 58.927283 
L 405.291796 65.278457 
L 406.119698 66.867923 
L 406.9476 67.375613 
L 407.775502 52.515969 
L 408.603404 58.095097 
L 410.259208 66.722668 
L 411.08711 60.236358 
L 411.915013 65.640364 
L 412.742915 53.476854 
L 413.570817 64.371694 
L 414.398719 77.941423 
L 415.226621 66.627878 
L 416.054523 70.761977 
L 416.882425 64.760079 
L 417.710327 70.618152 
L 418.538229 64.829784 
L 420.194033 70.480833 
L 421.021935 73.030052 
L 421.849837 66.079928 
L 422.677739 67.9506 
L 423.505641 65.4054 
L 424.333543 68.590903 
L 425.161445 78.156851 
L 425.989347 70.847651 
L 426.817249 71.731817 
L 427.645151 81.248154 
L 428.473053 69.084553 
L 429.300955 77.692518 
L 430.128857 68.101433 
L 430.956759 68.800549 
L 431.784661 72.221767 
L 432.612563 69.152661 
L 433.440466 76.802021 
L 434.268368 71.328798 
L 435.09627 76.868658 
L 435.924172 75.960607 
L 436.752074 81.690052 
L 437.579976 64.188236 
L 438.407878 67.932156 
L 439.23578 79.206906 
L 440.063682 74.887262 
L 440.891584 69.935646 
L 441.719486 80.957132 
L 442.547388 82.38482 
L 443.37529 77.581174 
L 444.203192 69.578082 
L 445.031094 77.820386 
L 445.858996 75.000327 
L 446.686898 81.503619 
L 447.5148 77.874615 
L 448.342702 84.500303 
L 449.170604 79.87277 
L 449.998506 87.790512 
L 450.826408 85.839391 
L 451.65431 79.94167 
L 452.482212 70.172859 
L 453.310114 81.624114 
L 454.138017 77.26832 
L 454.965919 86.019718 
L 456.621723 81.490973 
L 457.449625 95.461119 
L 458.277527 89.058716 
L 459.105429 88.987034 
L 459.933331 87.578831 
L 460.761233 90.785566 
L 461.589135 81.732005 
L 462.417037 85.616497 
L 463.244939 78.963944 
L 464.072841 87.044061 
L 464.900743 85.628971 
L 465.728645 98.053843 
L 466.556547 86.256634 
L 467.384449 85.423264 
L 468.212351 88.517397 
L 469.040253 90.896852 
L 469.868155 101.47173 
L 470.696057 90.447833 
L 471.523959 91.900082 
L 472.351861 95.78773 
L 473.179763 94.595359 
L 474.007665 92.585642 
L 474.835568 97.126568 
L 475.66347 104.491682 
L 476.491372 95.105969 
L 477.319274 100.376896 
L 478.147176 96.319754 
L 478.975078 100.724129 
L 479.80298 102.158699 
L 480.630882 107.69994 
L 481.458784 103.695006 
L 482.286686 102.859047 
L 483.114588 94.896799 
L 483.94249 103.078948 
L 484.770392 109.841292 
L 485.598294 109.120691 
L 486.426196 95.160598 
L 487.254098 102.607457 
L 488.082 105.557706 
L 488.909902 100.822818 
L 489.737804 110.347443 
L 490.565706 105.303993 
L 491.393608 103.288156 
L 492.22151 106.636017 
L 493.049412 101.999656 
L 493.877314 109.718014 
L 494.705216 109.528007 
L 495.533119 112.031061 
L 496.361021 110.456876 
L 497.188923 107.571303 
L 498.016825 108.054854 
L 498.844727 107.224652 
L 499.672629 115.033103 
L 500.500531 120.246363 
L 501.328433 115.441867 
L 502.156335 109.430168 
L 502.984237 113.506289 
L 503.812139 110.281049 
L 504.640041 110.927602 
L 505.467943 118.503786 
L 506.295845 116.970677 
L 507.123747 113.990252 
L 507.951649 109.084245 
L 508.779551 122.102434 
L 509.607453 122.312204 
L 510.435355 115.8255 
L 511.263257 127.279986 
L 512.091159 123.469347 
L 513.746963 120.284239 
L 514.574865 122.329174 
L 515.402767 123.681435 
L 516.230669 123.07257 
L 517.058572 122.61576 
L 517.886474 128.520389 
L 518.714376 127.476429 
L 519.542278 123.132569 
L 520.37018 128.205548 
L 521.198082 123.261815 
L 522.025984 127.6213 
L 522.853886 129.933696 
L 523.681788 139.35682 
L 524.50969 121.542401 
L 525.337592 131.932943 
L 526.165494 135.390451 
L 526.993396 140.897637 
L 527.821298 138.095194 
L 528.6492 131.72444 
L 529.477102 132.664959 
L 530.305004 131.120811 
L 531.132906 142.797339 
L 531.960808 144.057306 
L 532.78871 137.759187 
L 533.616612 129.031468 
L 534.444514 134.432908 
L 535.272416 140.977478 
L 536.100318 142.4706 
L 536.92822 135.64456 
L 537.756123 147.296091 
L 538.584025 141.133853 
L 539.411927 137.910213 
L 540.239829 143.493228 
L 541.067731 141.133393 
L 541.895633 154.54587 
L 542.723535 140.827282 
L 543.551437 140.44254 
L 544.379339 153.697164 
L 545.207241 155.785343 
L 546.035143 147.320481 
L 546.863045 146.010323 
L 547.690947 153.553817 
L 548.518849 145.317795 
L 549.346751 157.058375 
L 550.174653 146.420065 
L 551.002555 154.630708 
L 551.830457 152.234063 
L 552.658359 149.289264 
L 553.486261 151.702385 
L 554.314163 157.817217 
L 555.142065 153.555821 
L 555.969967 152.327755 
L 556.797869 157.292009 
L 557.625771 145.380963 
L 558.453674 157.908183 
L 559.281576 157.260162 
L 560.109478 163.834322 
L 560.93738 152.077471 
L 561.765282 165.89842 
L 562.593184 160.822789 
L 563.421086 166.269181 
L 564.248988 167.935931 
L 565.07689 163.277825 
L 565.904792 163.800123 
L 566.732694 164.554981 
L 567.560596 169.09819 
L 568.388498 164.722911 
L 569.2164 168.330511 
L 570.044302 174.396544 
L 570.872204 168.509299 
L 572.528008 173.109094 
L 573.35591 175.183543 
L 574.183812 178.541939 
L 575.011714 174.596632 
L 575.839616 177.325234 
L 576.667518 163.966394 
L 577.49542 177.97584 
L 578.323322 177.771544 
L 579.151225 185.189356 
L 579.979127 178.003254 
L 580.807029 180.16107 
L 581.634931 179.602762 
L 582.462833 177.357059 
L 583.290735 184.784302 
L 584.118637 183.721126 
L 584.946539 183.640187 
L 585.774441 185.241069 
L 586.602343 184.457256 
L 587.430245 179.758319 
L 588.258147 181.27911 
L 589.086049 187.979111 
L 589.913951 193.329066 
L 590.741853 189.731811 
L 591.569755 193.527963 
L 592.397657 188.401239 
L 593.225559 194.247341 
L 594.053461 193.300453 
L 594.881363 190.033002 
L 595.709265 197.726844 
L 596.537167 199.384035 
L 597.365069 193.415566 
L 598.192971 196.620661 
L 599.020873 202.189577 
L 599.848775 200.392665 
L 600.676678 187.121986 
L 602.332482 200.308446 
L 603.160384 205.544883 
L 603.988286 189.584435 
L 604.816188 206.258596 
L 605.64409 196.207823 
L 606.471992 204.248331 
L 607.299894 215.076065 
L 608.127796 213.055483 
L 608.955698 204.76297 
L 609.7836 212.37295 
L 610.611502 205.871678 
L 611.439404 208.546997 
L 612.267306 203.263009 
L 613.095208 204.148063 
L 613.92311 219.59405 
L 614.751012 213.225256 
L 615.578914 197.773298 
L 616.406816 212.56843 
L 617.234718 214.868018 
L 618.06262 213.669933 
L 618.890522 215.935413 
L 619.718424 215.778977 
L 620.546326 220.43643 
L 621.374229 209.023655 
L 622.202131 218.407933 
L 623.030033 208.178872 
L 623.857935 221.068524 
L 624.685837 213.222699 
L 625.513739 214.30869 
L 626.341641 221.338198 
L 627.169543 225.516892 
L 627.997445 228.004822 
L 628.825347 223.596994 
L 629.653249 222.539992 
L 630.481151 224.888855 
L 631.309053 230.327985 
L 632.136955 224.035428 
L 632.964857 229.824633 
L 633.792759 240.135497 
L 634.620661 235.342578 
L 635.448563 232.062311 
L 636.276465 221.577682 
L 637.104367 240.242673 
L 637.932269 235.592282 
L 638.760171 236.60244 
L 639.588073 234.494189 
L 640.415975 239.518104 
L 641.243877 235.498309 
L 642.07178 232.482277 
L 642.899682 245.426071 
L 643.727584 234.200756 
L 644.555486 237.847427 
L 645.383388 234.886984 
L 646.21129 244.506711 
L 647.039192 239.391545 
L 647.867094 236.947277 
L 648.694996 238.919188 
L 649.522898 248.345053 
L 650.3508 241.009287 
L 651.178702 246.737117 
L 652.006604 248.923571 
L 652.834506 246.706588 
L 653.662408 248.743094 
L 654.49031 248.252158 
L 655.318212 249.540863 
L 656.146114 257.597725 
L 656.974016 246.629299 
L 657.801918 255.292667 
L 658.62982 256.516776 
L 659.457722 247.819603 
L 660.285624 249.19043 
L 661.113526 247.456033 
L 662.769331 255.24749 
L 663.597233 254.528089 
L 664.425135 260.020997 
L 665.253037 253.513225 
L 666.080939 250.861158 
L 666.908841 252.047314 
L 667.736743 249.258877 
L 668.564645 261.128836 
L 669.392547 260.691153 
L 670.220449 251.27653 
L 671.048351 269.158035 
L 671.876253 256.66613 
L 672.704155 261.336181 
L 673.532057 264.7834 
L 674.359959 261.845637 
L 675.187861 273.441486 
L 676.015763 270.81102 
L 676.843665 264.591472 
L 677.671567 265.26155 
L 678.499469 263.385555 
L 679.327371 267.696904 
L 680.155273 268.396109 
L 680.983175 262.010651 
L 681.811077 265.579355 
L 682.638979 268.214751 
L 683.466881 261.542942 
L 684.294784 276.963836 
L 685.122686 272.604047 
L 685.950588 272.316424 
L 686.77849 271.908637 
L 687.606392 265.432594 
L 688.434294 280.038063 
L 689.262196 283.018838 
L 690.090098 278.123213 
L 690.918 276.247076 
L 691.745902 270.679122 
L 692.573804 281.760368 
L 693.401706 279.537936 
L 694.229608 276.531711 
L 695.05751 283.173323 
L 695.885412 276.945192 
L 696.713314 277.684618 
L 697.541216 288.025408 
L 698.369118 285.966637 
L 699.19702 274.978124 
L 700.024922 291.54351 
L 700.852824 281.68264 
L 701.680726 283.173356 
L 702.508628 281.669551 
L 703.33653 288.703265 
L 704.164432 280.986172 
L 704.992335 289.379228 
L 705.820237 293.830238 
L 706.648139 293.007918 
L 707.476041 289.278084 
L 708.303943 284.4981 
L 709.131845 289.961105 
L 709.959747 288.109406 
L 710.787649 294.763973 
L 711.615551 290.570488 
L 712.443453 297.320374 
L 713.271355 288.473519 
L 714.099257 298.012292 
L 714.927159 296.133785 
L 715.755061 301.826383 
L 716.582963 291.327867 
L 717.410865 295.907869 
L 718.238767 297.671978 
L 719.066669 303.193331 
L 719.894571 298.499286 
L 720.722473 295.267273 
L 721.550375 290.563371 
L 723.206179 304.588672 
L 724.861983 302.338643 
L 725.689886 304.251448 
L 726.517788 303.679243 
L 727.34569 299.557332 
L 728.173592 315.647177 
L 729.001494 307.419727 
L 729.829396 313.85333 
L 730.657298 311.85374 
L 731.4852 307.599435 
L 732.313102 309.720106 
L 733.141004 317.526531 
L 733.968906 314.151139 
L 734.796808 307.893969 
L 735.62471 307.410948 
L 736.452612 306.068283 
L 737.280514 306.412291 
L 738.108416 314.633335 
L 738.936318 326.963943 
L 739.76422 313.325957 
L 740.592122 316.882636 
L 741.420024 313.789869 
L 742.247926 320.024148 
L 743.075828 307.984179 
L 743.90373 316.774189 
L 744.731632 313.293602 
L 745.559534 312.168429 
L 746.387437 313.459111 
L 747.215339 325.862417 
L 748.043241 319.575841 
L 748.871143 321.233104 
L 749.699045 322.488828 
L 750.526947 322.540728 
L 751.354849 321.299891 
L 752.182751 315.716314 
L 753.010653 324.481257 
L 753.838555 327.945313 
L 754.666457 330.177274 
L 755.494359 318.954843 
L 756.322261 317.210869 
L 757.978065 322.285373 
L 758.805967 330.573976 
L 759.633869 328.136633 
L 760.461771 327.732457 
L 761.289673 329.777188 
L 762.117575 330.304 
L 762.945477 326.320792 
L 763.773379 332.126939 
L 764.601281 332.936624 
L 765.429183 322.485701 
L 766.257085 331.718209 
L 767.084987 333.487247 
L 767.91289 328.744305 
L 768.740792 334.591075 
L 769.568694 323.051936 
L 770.396596 328.174453 
L 771.224498 338.297303 
L 772.0524 330.212837 
L 772.880302 337.343043 
L 773.708204 323.537289 
L 774.536106 334.692737 
L 775.364008 333.343146 
L 776.19191 335.046177 
L 777.019812 340.269589 
L 777.847714 332.081655 
L 778.675616 335.212446 
L 779.503518 339.805773 
L 780.33142 346.88314 
L 781.159322 337.303114 
L 781.987224 330.726891 
L 783.643028 338.04576 
L 784.47093 337.254352 
L 785.298832 345.429127 
L 786.126734 344.180134 
L 786.954636 338.143207 
L 787.782538 339.725393 
L 788.610441 341.730723 
L 789.438343 348.507193 
L 790.266245 344.344238 
L 791.094147 342.858222 
L 791.922049 339.614202 
L 792.749951 348.645727 
L 793.577853 351.077654 
L 794.405755 339.63085 
L 795.233657 338.787985 
L 796.061559 351.960615 
L 796.889461 352.635335 
L 797.717363 338.222521 
L 798.545265 343.575586 
L 799.373167 350.975448 
L 800.201069 341.408016 
L 801.028971 338.867558 
L 801.856873 350.98295 
L 802.684775 344.211632 
L 803.512677 342.377218 
L 804.340579 341.272728 
L 805.168481 344.950786 
L 805.996383 347.564115 
L 806.824285 338.121614 
L 807.652187 353.781449 
L 808.480089 348.185006 
L 809.307992 351.041847 
L 810.135894 352.170361 
L 810.963796 335.339172 
L 811.791698 346.201093 
L 812.6196 354.94071 
L 813.447502 348.008995 
L 814.275404 357.110551 
L 815.103306 353.305899 
L 815.931208 352.685709 
L 816.75911 346.087863 
L 817.587012 353.534361 
L 818.414914 351.983988 
L 819.242816 354.581004 
L 820.070718 343.473701 
L 820.89862 357.59403 
L 821.726522 354.778987 
L 822.554424 357.074129 
L 823.382326 358.674152 
L 824.210228 351.517583 
L 825.03813 352.843166 
L 825.866032 353.809469 
L 826.693934 353.673583 
L 827.521836 343.980197 
L 828.349738 357.914263 
L 829.17764 347.590329 
L 830.005542 351.463223 
L 830.833445 354.094746 
L 831.661347 359.680705 
L 832.489249 357.477175 
L 833.317151 354.431753 
L 834.145053 349.906757 
L 834.972955 360.541086 
L 835.800857 351.164392 
L 836.628759 360.066722 
L 837.456661 360.492348 
L 838.284563 350.897805 
L 839.112465 353.012144 
L 839.940367 359.518342 
L 840.768269 348.081423 
L 841.596171 362.891021 
L 842.424073 363.654471 
L 843.251975 357.150818 
L 844.079877 354.748325 
L 844.907779 364.361773 
L 845.735681 351.698068 
L 846.563583 363.08848 
L 847.391485 366.443874 
L 848.219387 355.577655 
L 849.047289 358.694536 
L 849.875191 370.437386 
L 850.703093 361.244246 
L 851.530996 368.142679 
L 852.358898 359.040852 
L 853.1868 355.234833 
L 854.014702 358.568184 
L 854.842604 350.279453 
L 855.670506 365.304799 
L 856.498408 357.489141 
L 857.32631 363.845622 
L 858.154212 360.029954 
L 858.982114 368.585109 
L 859.810016 356.965001 
L 860.637918 364.30821 
L 861.46582 360.285011 
L 862.293722 361.817886 
L 863.121624 358.94227 
L 863.949526 356.971439 
L 864.777428 357.866721 
L 865.60533 361.503742 
L 866.433232 363.00458 
L 867.261134 359.97258 
L 868.089036 362.844887 
L 868.916938 361.250189 
L 869.74484 361.343949 
L 870.572742 356.197999 
L 871.400644 357.812095 
L 872.228547 354.810336 
L 873.056449 365.741859 
L 873.884351 359.93052 
L 874.712253 359.200014 
L 875.540155 363.393713 
L 876.368057 369.266603 
L 877.195959 366.666557 
L 878.023861 360.407088 
L 878.851763 359.911793 
L 879.679665 353.126172 
L 880.507567 358.818052 
L 881.335469 358.645253 
L 882.163371 361.440638 
L 882.991273 363.418643 
L 883.819175 362.410417 
L 884.647077 364.270533 
L 885.474979 361.222072 
L 886.302881 369.748528 
L 887.130783 362.138968 
L 887.958685 362.043583 
L 888.786587 359.477439 
L 889.614489 363.412231 
L 891.270293 354.855657 
L 892.098195 361.524919 
L 892.926098 362.169106 
L 893.754 354.682065 
L 894.581902 362.603145 
L 896.237706 358.770099 
L 897.065608 360.987419 
L 898.721412 357.430102 
L 899.549314 357.496657 
L 900.377216 354.725877 
L 902.03302 359.371089 
L 902.860922 354.981105 
L 903.688824 355.573128 
L 904.516726 357.306157 
L 905.344628 359.427631 
L 906.17253 358.550213 
L 907.000432 359.229005 
L 907.828334 361.916089 
L 908.656236 350.156023 
L 909.484138 358.527547 
L 910.31204 351.15249 
L 911.139942 364.642382 
L 911.967844 350.432981 
L 912.795746 350.982607 
L 913.623648 355.247189 
L 914.451551 356.535784 
L 915.279453 358.974372 
L 916.107355 365.904016 
L 916.935257 360.728367 
L 917.763159 361.571696 
L 918.591061 349.99346 
L 919.418963 347.49392 
L 920.246865 359.701855 
L 921.074767 355.625793 
L 921.902669 363.475955 
L 922.730571 347.667821 
L 923.558473 356.277606 
L 924.386375 352.810889 
L 925.214277 352.20084 
L 926.042179 347.800629 
L 926.870081 348.126117 
L 927.697983 348.798836 
L 929.353787 357.265704 
L 930.181689 360.637933 
L 931.009591 345.149933 
L 931.837493 358.221092 
L 932.665395 353.53825 
L 933.493297 337.67149 
L 934.321199 346.741797 
L 935.149102 342.601923 
L 935.977004 348.691361 
L 936.804906 346.308583 
L 937.632808 352.963593 
L 938.46071 343.480977 
L 939.288612 352.092499 
L 940.116514 350.046944 
L 940.944416 345.614922 
L 941.772318 352.074235 
L 942.60022 341.793306 
L 943.428122 345.3556 
L 945.083926 345.033765 
L 945.911828 338.829733 
L 946.73973 348.959683 
L 948.395534 343.996043 
L 949.223436 351.522831 
L 950.051338 354.031781 
L 950.87924 347.046905 
L 951.707142 348.489848 
L 952.535044 339.447697 
L 953.362946 346.96786 
L 954.190848 343.369207 
L 955.01875 342.265818 
L 955.846653 344.628815 
L 956.674555 343.422692 
L 957.502457 335.719597 
L 958.330359 348.006155 
L 959.986163 342.484513 
L 960.814065 330.107096 
L 961.641967 342.264636 
L 962.469869 335.989072 
L 963.297771 336.331239 
L 964.125673 335.773031 
L 964.953575 335.369706 
L 965.781477 335.62587 
L 966.609379 335.118727 
L 967.437281 339.608947 
L 968.265183 334.416959 
L 969.093085 333.670449 
L 969.920987 325.265778 
L 970.748889 338.568537 
L 971.576791 341.472048 
L 972.404693 334.826471 
L 973.232595 338.127363 
L 974.060497 333.187603 
L 974.888399 339.039995 
L 975.716301 327.997527 
L 976.544204 327.31583 
L 977.372106 328.701428 
L 978.200008 329.537844 
L 979.02791 332.085691 
L 979.855812 325.131432 
L 980.683714 326.385908 
L 981.511616 318.528718 
L 982.339518 322.623811 
L 983.16742 329.522481 
L 983.995322 326.04501 
L 984.823224 334.280308 
L 985.651126 322.802618 
L 986.479028 335.280734 
L 987.30693 318.6363 
L 988.134832 325.198145 
L 988.962734 312.496972 
L 989.790636 321.238543 
L 990.618538 326.074426 
L 991.44644 332.487305 
L 992.274342 321.413059 
L 993.102244 318.672783 
L 993.930146 320.405018 
L 994.758048 325.505154 
L 995.58595 322.463145 
L 996.413852 322.211249 
L 997.241754 314.304809 
L 998.069657 321.623915 
L 998.897559 321.038276 
L 999.725461 319.644043 
L 1000.553363 308.482328 
L 1001.381265 313.924009 
L 1002.209167 320.565976 
L 1003.037069 316.389562 
L 1003.864971 310.058155 
L 1004.692873 319.053838 
L 1005.520775 307.349901 
L 1006.348677 310.000268 
L 1007.176579 311.996882 
L 1008.004481 303.475326 
L 1008.832383 316.227848 
L 1009.660285 312.491736 
L 1010.488187 307.860468 
L 1011.316089 302.183878 
L 1012.143991 314.408864 
L 1012.971893 300.389604 
L 1013.799795 305.002644 
L 1014.627697 310.98781 
L 1015.455599 301.253955 
L 1017.111403 306.010174 
L 1017.939305 298.351693 
L 1018.767208 304.170356 
L 1019.59511 301.343046 
L 1020.423012 302.178435 
L 1021.250914 304.994614 
L 1022.906718 302.071706 
L 1023.73462 298.393392 
L 1024.562522 304.658019 
L 1025.390424 301.907493 
L 1026.218326 303.653226 
L 1027.046228 296.49741 
L 1027.87413 296.124936 
L 1028.702032 307.465896 
L 1029.529934 298.9452 
L 1030.357836 292.062553 
L 1031.185738 299.343498 
L 1032.01364 294.361919 
L 1032.841542 296.533344 
L 1033.669444 286.479165 
L 1034.497346 301.138817 
L 1035.325248 289.20239 
L 1036.15315 293.862596 
L 1036.981052 290.121632 
L 1037.808954 290.261704 
L 1038.636856 286.023591 
L 1039.464759 281.119395 
L 1040.292661 292.661545 
L 1041.120563 286.073054 
L 1041.948465 291.242564 
L 1042.776367 275.189673 
L 1043.604269 279.892232 
L 1044.432171 287.898142 
L 1045.260073 282.109418 
L 1046.087975 284.288934 
L 1046.915877 273.935988 
L 1047.743779 278.46951 
L 1048.571681 280.003035 
L 1049.399583 278.341289 
L 1050.227485 283.34856 
L 1051.055387 277.848448 
L 1051.883289 283.954618 
L 1052.711191 284.844693 
L 1053.539093 275.829973 
L 1054.366995 273.197353 
L 1055.194897 268.455626 
L 1056.022799 271.714115 
L 1056.850701 271.298466 
L 1057.678603 271.276339 
L 1058.506505 266.225724 
L 1059.334407 274.834618 
L 1060.16231 262.149197 
L 1060.990212 270.028524 
L 1061.818114 271.521748 
L 1062.646016 273.56077 
L 1063.473918 268.401254 
L 1064.30182 273.718264 
L 1065.129722 277.600852 
L 1065.957624 261.190987 
L 1066.785526 267.571133 
L 1067.613428 270.659421 
L 1068.44133 271.623224 
L 1069.269232 271.060852 
L 1070.097134 260.617754 
L 1070.925036 282.471694 
L 1071.752938 259.959457 
L 1072.58084 260.701564 
L 1073.408742 266.285611 
L 1074.236644 263.386563 
L 1075.064546 259.57818 
L 1075.892448 266.916196 
L 1076.72035 264.161615 
L 1077.548252 266.394932 
L 1078.376154 257.107857 
L 1079.204056 260.301087 
L 1080.031958 250.636209 
L 1080.85986 249.793321 
L 1081.687763 260.134312 
L 1082.515665 252.9944 
L 1083.343567 251.61975 
L 1084.171469 249.418503 
L 1084.999371 245.923873 
L 1085.827273 247.93284 
L 1085.827273 247.93284 
" clip-path="url(#p43dc6b9404)" style="fill: none; stroke-dasharray: 3.7,1.6; stroke-dashoffset: 0; stroke: #dd2222"/>
   </g>
   <g id="patch_3">
    <path d="M 43.54 386.7475 
L 43.54 27.925 
" style="fill: none; stroke: #000000; stroke-width: 0.8; stroke-linejoin: miter; stroke-linecap: square"/>
   </g>
   <g id="patch_4">
    <path d="M 1135.46 386.7475 
L 1135.46 27.925 
" style="fill: none; stroke: #000000; stroke-width: 0.8; stroke-linejoin: miter; stroke-linecap: square"/>
   </g>
   <g id="patch_5">
    <path d="M 43.54 386.7475 
L 1135.46 386.7475 
" style="fill: none; stroke: #000000; stroke-width: 0.8; stroke-linejoin: miter; stroke-linecap: square"/>
   </g>
   <g id="patch_6">
    <path d="M 43.54 27.925 
L 1135.46 27.925 
" style="fill: none; stroke: #000000; stroke-width: 0.8; stroke-linejoin: miter; stroke-linecap: square"/>
   </g>
   <g id="text_14">
    <!-- 角度跟踪曲线  MAE=1.46$^\circ$   RMSE=1.81$^\circ$ -->
    <g transform="translate(469.25 17.925)">
     <text>
      <tspan x="0" y="-0.28125" style="font-size: 13px; font-family: 'SimHei'">角</tspan>
      <tspan x="13" y="-0.28125" style="font-size: 13px; font-family: 'SimHei'">度</tspan>
      <tspan x="26" y="-0.28125" style="font-size: 13px; font-family: 'SimHei'">跟</tspan>
      <tspan x="39" y="-0.28125" style="font-size: 13px; font-family: 'SimHei'">踪</tspan>
      <tspan x="52" y="-0.28125" style="font-size: 13px; font-family: 'SimHei'">曲</tspan>
      <tspan x="65" y="-0.28125" style="font-size: 13px; font-family: 'SimHei'">线</tspan>
      <tspan x="78" y="-0.28125" style="font-size: 13px; font-family: 'SimHei'"> </tspan>
      <tspan x="84.5" y="-0.28125" style="font-size: 13px; font-family: 'SimHei'"> </tspan>
      <tspan x="91" y="-0.28125" style="font-size: 13px; font-family: 'SimHei'">M</tspan>
      <tspan x="97.5" y="-0.28125" style="font-size: 13px; font-family: 'SimHei'">A</tspan>
      <tspan x="104" y="-0.28125" style="font-size: 13px; font-family: 'SimHei'">E</tspan>
      <tspan x="110.5" y="-0.28125" style="font-size: 13px; font-family: 'SimHei'">=</tspan>
      <tspan x="117" y="-0.28125" style="font-size: 13px; font-family: 'SimHei'">1</tspan>
      <tspan x="123.5" y="-0.28125" style="font-size: 13px; font-family: 'SimHei'">.</tspan>
      <tspan x="130" y="-0.28125" style="font-size: 13px; font-family: 'SimHei'">4</tspan>
      <tspan x="136.5" y="-0.28125" style="font-size: 13px; font-family: 'SimHei'">6</tspan>
      <tspan x="152.72207" y="-0.28125" style="font-size: 13px; font-family: 'SimHei'"> </tspan>
      <tspan x="159.22207" y="-0.28125" style="font-size: 13px; font-family: 'SimHei'"> </tspan>
      <tspan x="165.72207" y="-0.28125" style="font-size: 13px; font-family: 'SimHei'"> </tspan>
      <tspan x="172.22207" y="-0.28125" style="font-size: 13px; font-family: 'SimHei'">R</tspan>
      <tspan x="178.72207" y="-0.28125" style="font-size: 13px; font-family: 'SimHei'">M</tspan>
      <tspan x="185.22207" y="-0.28125" style="font-size: 13px; font-family: 'SimHei'">S</tspan>
      <tspan x="191.72207" y="-0.28125" style="font-size: 13px; font-family: 'SimHei'">E</tspan>
      <tspan x="198.22207" y="-0.28125" style="font-size: 13px; font-family: 'SimHei'">=</tspan>
      <tspan x="204.72207" y="-0.28125" style="font-size: 13px; font-family: 'SimHei'">1</tspan>
      <tspan x="211.22207" y="-0.28125" style="font-size: 13px; font-family: 'SimHei'">.</tspan>
      <tspan x="217.72207" y="-0.28125" style="font-size: 13px; font-family: 'SimHei'">8</tspan>
      <tspan x="224.22207" y="-0.28125" style="font-size: 13px; font-family: 'SimHei'">1</tspan>
      <tspan x="144.897314" y="-5.257812" style="font-size: 9.1px; font-family: 'DejaVu Sans'">∘</tspan>
      <tspan x="232.619385" y="-5.257812" style="font-size: 9.1px; font-family: 'DejaVu Sans'">∘</tspan>
     </text>
    </g>
   </g>
   <g id="legend_1">
    <g id="patch_7">
     <path d="M 50.54 64.51875 
L 122.54 64.51875 
Q 124.54 64.51875 124.54 62.51875 
L 124.54 34.925 
Q 124.54 32.925 122.54 32.925 
L 50.54 32.925 
Q 48.54 32.925 48.54 34.925 
L 48.54 62.51875 
Q 48.54 64.51875 50.54 64.51875 
z
" style="fill: #ffffff; opacity: 0.8; stroke: #cccccc; stroke-linejoin: miter"/>
    </g>
    <g id="line2d_25">
     <path d="M 52.54 41.471875 
L 62.54 41.471875 
L 72.54 41.471875 
" style="fill: none; stroke: #0033cc; stroke-width: 1.6; stroke-linecap: square"/>
    </g>
    <g id="text_15">
     <text style="font-size: 10px; font-family: 'SimHei'; text-anchor: start" x="80.54" y="44.971875" transform="rotate(-0 80.54 44.971875)">目标角度</text>
    </g>
    <g id="line2d_26">
     <path d="M 52.54 55.76875 
L 62.54 55.76875 
L 72.54 55.76875 
" style="fill: none; stroke-dasharray: 3.7,1.6; stroke-dashoffset: 0; stroke: #dd2222"/>
    </g>
    <g id="text_16">
     <text style="font-size: 10px; font-family: 'SimHei'; text-anchor: start" x="80.54" y="59.26875" transform="rotate(-0 80.54 59.26875)">实际角度</text>
    </g>
   </g>
  </g>
 </g>
 <defs>
  <clipPath id="p43dc6b9404">
   <rect x="43.54" y="27.925" width="1091.92" height="358.8225"/>
  </clipPath>
 </defs>
</svg>
