<?xml version="1.0" encoding="utf-8" standalone="no"?>
<!DOCTYPE svg PUBLIC "-//W3C//DTD SVG 1.1//EN"
  "http://www.w3.org/Graphics/SVG/1.1/DTD/svg11.dtd">
<svg xmlns:xlink="http://www.w3.org/1999/xlink" width="1126.4pt" height="478.4pt" viewBox="0 0 1126.4 478.4" xmlns="http://www.w3.org/2000/svg" version="1.1">
 <metadata>
  <rdf:RDF xmlns:dc="http://purl.org/dc/elements/1.1/" xmlns:cc="http://creativecommons.org/ns#" xmlns:rdf="http://www.w3.org/1999/02/22-rdf-syntax-ns#">
   <cc:Work>
    <dc:type rdf:resource="http://purl.org/dc/dcmitype/StillImage"/>
    <dc:date>2026-06-16T16:57:04.197074</dc:date>
    <dc:format>image/svg+xml</dc:format>
    <dc:creator>
     <cc:Agent>
      <dc:title>Matplotlib v3.10.8, https://matplotlib.org/</dc:title>
     </cc:Agent>
    </dc:creator>
   </cc:Work>
  </rdf:RDF>
 </metadata>
 <defs>
  <style type="text/css">*{stroke-linejoin: round; stroke-linecap: butt}</style>
 </defs>
 <g id="figure_1">
  <g id="patch_1">
   <path d="M 0 478.4 
L 1126.4 478.4 
L 1126.4 0 
L 0 0 
z
" style="fill: #ffffff"/>
  </g>
  <g id="axes_1">
   <g id="patch_2">
    <path d="M 340.8 69.066667 
L 785.6 69.066667 
L 785.6 22.666667 
L 340.8 22.666667 
z
" clip-path="url(#p80b88f4b0e)" style="fill: #ffffff; stroke: #000000; stroke-width: 1.2; stroke-linejoin: miter"/>
   </g>
   <g id="patch_3">
    <path d="M 62.8 161.866667 
L 174 161.866667 
L 174 100 
L 62.8 100 
z
" clip-path="url(#p80b88f4b0e)" style="fill: #ffffff; stroke: #000000; stroke-linejoin: miter"/>
   </g>
   <g id="patch_4">
    <path d="M 196.24 161.866667 
L 307.44 161.866667 
L 307.44 100 
L 196.24 100 
z
" clip-path="url(#p80b88f4b0e)" style="fill: #ffffff; stroke: #000000; stroke-linejoin: miter"/>
   </g>
   <g id="patch_5">
    <path d="M 351.92 161.866667 
L 463.12 161.866667 
L 463.12 100 
L 351.92 100 
z
" clip-path="url(#p80b88f4b0e)" style="fill: #ffffff; stroke: #000000; stroke-linejoin: miter"/>
   </g>
   <g id="patch_6">
    <path d="M 496.48 161.866667 
L 607.68 161.866667 
L 607.68 100 
L 496.48 100 
z
" clip-path="url(#p80b88f4b0e)" style="fill: #ffffff; stroke: #000000; stroke-linejoin: miter"/>
   </g>
   <g id="patch_7">
    <path d="M 641.04 161.866667 
L 752.24 161.866667 
L 752.24 100 
L 641.04 100 
z
" clip-path="url(#p80b88f4b0e)" style="fill: #ffffff; stroke: #000000; stroke-linejoin: miter"/>
   </g>
   <g id="patch_8">
    <path d="M 785.6 161.866667 
L 896.8 161.866667 
L 896.8 100 
L 785.6 100 
z
" clip-path="url(#p80b88f4b0e)" style="fill: #ffffff; stroke: #000000; stroke-linejoin: miter"/>
   </g>
   <g id="patch_9">
    <path d="M 930.16 161.866667 
L 1041.36 161.866667 
L 1041.36 100 
L 930.16 100 
z
" clip-path="url(#p80b88f4b0e)" style="fill: #ffffff; stroke: #000000; stroke-linejoin: miter"/>
   </g>
   <g id="patch_10">
    <path d="M 68.36 242.293333 
L 168.44 242.293333 
L 168.44 208.266667 
L 68.36 208.266667 
z
" clip-path="url(#p80b88f4b0e)" style="fill: #ffffff; stroke: #000000; stroke-linejoin: miter"/>
   </g>
   <g id="patch_11">
    <path d="M 68.36 288.693333 
L 168.44 288.693333 
L 168.44 254.666667 
L 68.36 254.666667 
z
" clip-path="url(#p80b88f4b0e)" style="fill: #ffffff; stroke: #000000; stroke-linejoin: miter"/>
   </g>
   <g id="patch_12">
    <path d="M 68.36 335.093333 
L 168.44 335.093333 
L 168.44 301.066667 
L 68.36 301.066667 
z
" clip-path="url(#p80b88f4b0e)" style="fill: #ffffff; stroke: #000000; stroke-linejoin: miter"/>
   </g>
   <g id="patch_13">
    <path d="M 201.8 242.293333 
L 301.88 242.293333 
L 301.88 208.266667 
L 201.8 208.266667 
z
" clip-path="url(#p80b88f4b0e)" style="fill: #ffffff; stroke: #000000; stroke-linejoin: miter"/>
   </g>
   <g id="patch_14">
    <path d="M 201.8 288.693333 
L 301.88 288.693333 
L 301.88 254.666667 
L 201.8 254.666667 
z
" clip-path="url(#p80b88f4b0e)" style="fill: #ffffff; stroke: #000000; stroke-linejoin: miter"/>
   </g>
   <g id="patch_15">
    <path d="M 201.8 335.093333 
L 301.88 335.093333 
L 301.88 301.066667 
L 201.8 301.066667 
z
" clip-path="url(#p80b88f4b0e)" style="fill: #ffffff; stroke: #000000; stroke-linejoin: miter"/>
   </g>
   <g id="patch_16">
    <path d="M 201.8 381.493333 
L 301.88 381.493333 
L 301.88 347.466667 
L 201.8 347.466667 
z
" clip-path="url(#p80b88f4b0e)" style="fill: #ffffff; stroke: #000000; stroke-linejoin: miter"/>
   </g>
   <g id="patch_17">
    <path d="M 201.8 427.893333 
L 301.88 427.893333 
L 301.88 393.866667 
L 201.8 393.866667 
z
" clip-path="url(#p80b88f4b0e)" style="fill: #ffffff; stroke: #000000; stroke-linejoin: miter"/>
   </g>
   <g id="patch_18">
    <path d="M 357.48 242.293333 
L 457.56 242.293333 
L 457.56 208.266667 
L 357.48 208.266667 
z
" clip-path="url(#p80b88f4b0e)" style="fill: #ffffff; stroke: #000000; stroke-linejoin: miter"/>
   </g>
   <g id="patch_19">
    <path d="M 357.48 288.693333 
L 457.56 288.693333 
L 457.56 254.666667 
L 357.48 254.666667 
z
" clip-path="url(#p80b88f4b0e)" style="fill: #ffffff; stroke: #000000; stroke-linejoin: miter"/>
   </g>
   <g id="patch_20">
    <path d="M 357.48 335.093333 
L 457.56 335.093333 
L 457.56 301.066667 
L 357.48 301.066667 
z
" clip-path="url(#p80b88f4b0e)" style="fill: #ffffff; stroke: #000000; stroke-linejoin: miter"/>
   </g>
   <g id="patch_21">
    <path d="M 357.48 381.493333 
L 457.56 381.493333 
L 457.56 347.466667 
L 357.48 347.466667 
z
" clip-path="url(#p80b88f4b0e)" style="fill: #ffffff; stroke: #000000; stroke-linejoin: miter"/>
   </g>
   <g id="patch_22">
    <path d="M 502.04 242.293333 
L 602.12 242.293333 
L 602.12 208.266667 
L 502.04 208.266667 
z
" clip-path="url(#p80b88f4b0e)" style="fill: #ffffff; stroke: #000000; stroke-linejoin: miter"/>
   </g>
   <g id="patch_23">
    <path d="M 502.04 288.693333 
L 602.12 288.693333 
L 602.12 254.666667 
L 502.04 254.666667 
z
" clip-path="url(#p80b88f4b0e)" style="fill: #ffffff; stroke: #000000; stroke-linejoin: miter"/>
   </g>
   <g id="patch_24">
    <path d="M 502.04 335.093333 
L 602.12 335.093333 
L 602.12 301.066667 
L 502.04 301.066667 
z
" clip-path="url(#p80b88f4b0e)" style="fill: #ffffff; stroke: #000000; stroke-linejoin: miter"/>
   </g>
   <g id="patch_25">
    <path d="M 502.04 381.493333 
L 602.12 381.493333 
L 602.12 347.466667 
L 502.04 347.466667 
z
" clip-path="url(#p80b88f4b0e)" style="fill: #ffffff; stroke: #000000; stroke-linejoin: miter"/>
   </g>
   <g id="patch_26">
    <path d="M 502.04 427.893333 
L 602.12 427.893333 
L 602.12 393.866667 
L 502.04 393.866667 
z
" clip-path="url(#p80b88f4b0e)" style="fill: #ffffff; stroke: #000000; stroke-linejoin: miter"/>
   </g>
   <g id="patch_27">
    <path d="M 646.6 242.293333 
L 746.68 242.293333 
L 746.68 208.266667 
L 646.6 208.266667 
z
" clip-path="url(#p80b88f4b0e)" style="fill: #ffffff; stroke: #000000; stroke-linejoin: miter"/>
   </g>
   <g id="patch_28">
    <path d="M 646.6 288.693333 
L 746.68 288.693333 
L 746.68 254.666667 
L 646.6 254.666667 
z
" clip-path="url(#p80b88f4b0e)" style="fill: #ffffff; stroke: #000000; stroke-linejoin: miter"/>
   </g>
   <g id="patch_29">
    <path d="M 646.6 335.093333 
L 746.68 335.093333 
L 746.68 301.066667 
L 646.6 301.066667 
z
" clip-path="url(#p80b88f4b0e)" style="fill: #ffffff; stroke: #000000; stroke-linejoin: miter"/>
   </g>
   <g id="patch_30">
    <path d="M 646.6 381.493333 
L 746.68 381.493333 
L 746.68 347.466667 
L 646.6 347.466667 
z
" clip-path="url(#p80b88f4b0e)" style="fill: #ffffff; stroke: #000000; stroke-linejoin: miter"/>
   </g>
   <g id="patch_31">
    <path d="M 646.6 427.893333 
L 746.68 427.893333 
L 746.68 393.866667 
L 646.6 393.866667 
z
" clip-path="url(#p80b88f4b0e)" style="fill: #ffffff; stroke: #000000; stroke-linejoin: miter"/>
   </g>
   <g id="patch_32">
    <path d="M 791.16 242.293333 
L 891.24 242.293333 
L 891.24 208.266667 
L 791.16 208.266667 
z
" clip-path="url(#p80b88f4b0e)" style="fill: #ffffff; stroke: #000000; stroke-linejoin: miter"/>
   </g>
   <g id="patch_33">
    <path d="M 791.16 288.693333 
L 891.24 288.693333 
L 891.24 254.666667 
L 791.16 254.666667 
z
" clip-path="url(#p80b88f4b0e)" style="fill: #ffffff; stroke: #000000; stroke-linejoin: miter"/>
   </g>
   <g id="patch_34">
    <path d="M 791.16 335.093333 
L 891.24 335.093333 
L 891.24 301.066667 
L 791.16 301.066667 
z
" clip-path="url(#p80b88f4b0e)" style="fill: #ffffff; stroke: #000000; stroke-linejoin: miter"/>
   </g>
   <g id="patch_35">
    <path d="M 791.16 381.493333 
L 891.24 381.493333 
L 891.24 347.466667 
L 791.16 347.466667 
z
" clip-path="url(#p80b88f4b0e)" style="fill: #ffffff; stroke: #000000; stroke-linejoin: miter"/>
   </g>
   <g id="patch_36">
    <path d="M 935.72 242.293333 
L 1035.8 242.293333 
L 1035.8 208.266667 
L 935.72 208.266667 
z
" clip-path="url(#p80b88f4b0e)" style="fill: #ffffff; stroke: #000000; stroke-linejoin: miter"/>
   </g>
   <g id="patch_37">
    <path d="M 935.72 288.693333 
L 1035.8 288.693333 
L 1035.8 254.666667 
L 935.72 254.666667 
z
" clip-path="url(#p80b88f4b0e)" style="fill: #ffffff; stroke: #000000; stroke-linejoin: miter"/>
   </g>
   <g id="text_1">
    <text style="font-size: 16px; font-family: 'SimHei'; text-anchor: middle" x="563.2" y="51.366667" transform="rotate(-0 563.2 51.366667)">基于肌肉驱动的生物力学人机交互系统</text>
   </g>
   <g id="text_2">
    <text style="font-size: 10px; font-family: 'SimHei'" transform="translate(105.9 129.06224)">第1章</text>
    <text style="font-size: 10px; font-family: 'SimHei'" transform="translate(108.4 139.640365)">结论</text>
   </g>
   <g id="text_3">
    <text style="font-size: 10px; font-family: 'SimHei'" transform="translate(239.34 123.538802)">第2章</text>
    <text style="font-size: 10px; font-family: 'SimHei'" transform="translate(231.84 134.445052)">理论基础</text>
    <text style="font-size: 10px; font-family: 'SimHei'" transform="translate(226.84 145.163802)">与关键技术</text>
   </g>
   <g id="text_4">
    <text style="font-size: 10px; font-family: 'SimHei'" transform="translate(395.02 128.87474)">第3章</text>
    <text style="font-size: 10px; font-family: 'SimHei'" transform="translate(377.52 139.827865)">系统总体设计</text>
   </g>
   <g id="text_5">
    <text style="font-size: 10px; font-family: 'SimHei'" transform="translate(539.58 128.921615)">第4章</text>
    <text style="font-size: 10px; font-family: 'SimHei'" transform="translate(527.08 139.78099)">建模与实现</text>
   </g>
   <g id="text_6">
    <text style="font-size: 10px; font-family: 'SimHei'" transform="translate(684.14 123.491927)">第5章</text>
    <text style="font-size: 10px; font-family: 'SimHei'" transform="translate(676.64 134.257552)">视觉引导</text>
    <text style="font-size: 10px; font-family: 'SimHei'" transform="translate(671.64 145.210677)">与控制算法</text>
   </g>
   <g id="text_7">
    <text style="font-size: 10px; font-family: 'SimHei'" transform="translate(828.7 128.898177)">第6章</text>
    <text style="font-size: 10px; font-family: 'SimHei'" transform="translate(806.2 139.804427)">测试与精度分析</text>
   </g>
   <g id="text_8">
    <text style="font-size: 10px; font-family: 'SimHei'" transform="translate(973.26 128.945052)">第7章</text>
    <text style="font-size: 10px; font-family: 'SimHei'" transform="translate(960.76 139.757552)">总结与展望</text>
   </g>
   <g id="text_9">
    <text style="font-size: 10px; font-family: 'SimHei'; text-anchor: middle" x="118.4" y="227.151302" transform="rotate(-0 118.4 227.151302)">研究背景与意义</text>
   </g>
   <g id="text_10">
    <text style="font-size: 10px; font-family: 'SimHei'; text-anchor: middle" x="118.4" y="273.531771" transform="rotate(-0 118.4 273.531771)">国内外研究现状</text>
   </g>
   <g id="text_11">
    <text style="font-size: 10px; font-family: 'SimHei'; text-anchor: middle" x="118.4" y="319.951302" transform="rotate(-0 118.4 319.951302)">研究内容与组织</text>
   </g>
   <g id="text_12">
    <text style="font-size: 10px; font-family: 'SimHei'; text-anchor: middle" x="251.84" y="227.170833" transform="rotate(-0 251.84 227.170833)">上肢生物力学理论</text>
   </g>
   <g id="text_13">
    <text style="font-size: 10px; font-family: 'SimHei'; text-anchor: middle" x="251.84" y="273.51224" transform="rotate(-0 251.84 273.51224)">MuJoCo 仿真引擎</text>
   </g>
   <g id="text_14">
    <text style="font-size: 10px; font-family: 'SimHei'; text-anchor: middle" x="251.84" y="319.814583" transform="rotate(-0 251.84 319.814583)">User-in-the-Box 框架</text>
   </g>
   <g id="text_15">
    <text style="font-size: 10px; font-family: 'SimHei'; text-anchor: middle" x="251.84" y="366.331771" transform="rotate(-0 251.84 366.331771)">视觉引导与控制基础</text>
   </g>
   <g id="text_16">
    <text style="font-size: 10px; font-family: 'SimHei'; text-anchor: middle" x="251.84" y="412.751302" transform="rotate(-0 251.84 412.751302)">系统评估指标体系</text>
   </g>
   <g id="text_17">
    <text style="font-size: 10px; font-family: 'SimHei'; text-anchor: middle" x="407.52" y="227.151302" transform="rotate(-0 407.52 227.151302)">系统需求分析</text>
   </g>
   <g id="text_18">
    <text style="font-size: 10px; font-family: 'SimHei'; text-anchor: middle" x="407.52" y="273.531771" transform="rotate(-0 407.52 273.531771)">四层架构设计</text>
   </g>
   <g id="text_19">
    <text style="font-size: 10px; font-family: 'SimHei'; text-anchor: middle" x="407.52" y="319.970833" transform="rotate(-0 407.52 319.970833)">系统工作流程</text>
   </g>
   <g id="text_20">
    <text style="font-size: 10px; font-family: 'SimHei'; text-anchor: middle" x="407.52" y="366.370833" transform="rotate(-0 407.52 366.370833)">开发环境与工具</text>
   </g>
   <g id="text_21">
    <text style="font-size: 10px; font-family: 'SimHei'; text-anchor: middle" x="552.08" y="227.11224" transform="rotate(-0 552.08 227.11224)">建模总体设计</text>
   </g>
   <g id="text_22">
    <text style="font-size: 10px; font-family: 'SimHei'; text-anchor: middle" x="552.08" y="273.51224" transform="rotate(-0 552.08 273.51224)">上肢肌肉骨骼模型</text>
   </g>
   <g id="text_23">
    <text style="font-size: 10px; font-family: 'SimHei'; text-anchor: middle" x="552.08" y="319.951302" transform="rotate(-0 552.08 319.951302)">方向盘物理模型</text>
   </g>
   <g id="text_24">
    <text style="font-size: 10px; font-family: 'SimHei'; text-anchor: middle" x="552.08" y="366.351302" transform="rotate(-0 552.08 366.351302)">肌肉-方向盘耦合</text>
   </g>
   <g id="text_25">
    <text style="font-size: 10px; font-family: 'SimHei'; text-anchor: middle" x="552.08" y="412.692708" transform="rotate(-0 552.08 412.692708)">模型合理性验证</text>
   </g>
   <g id="text_26">
    <text style="font-size: 10px; font-family: 'SimHei'; text-anchor: middle" x="696.64" y="227.151302" transform="rotate(-0 696.64 227.151302)">算法整体架构</text>
   </g>
   <g id="text_27">
    <text style="font-size: 10px; font-family: 'SimHei'; text-anchor: middle" x="696.64" y="273.570833" transform="rotate(-0 696.64 273.570833)">数据处理与运动学</text>
   </g>
   <g id="text_28">
    <text style="font-size: 10px; font-family: 'SimHei'; text-anchor: middle" x="696.64" y="319.91224" transform="rotate(-0 696.64 319.91224)">控制模块设计实现</text>
   </g>
   <g id="text_29">
    <text style="font-size: 10px; font-family: 'SimHei'; text-anchor: middle" x="696.64" y="366.292708" transform="rotate(-0 696.64 366.292708)">视觉引导模块</text>
   </g>
   <g id="text_30">
    <text style="font-size: 10px; font-family: 'SimHei'; text-anchor: middle" x="696.64" y="412.770833" transform="rotate(-0 696.64 412.770833)">系统集成与运行</text>
   </g>
   <g id="text_31">
    <text style="font-size: 10px; font-family: 'SimHei'; text-anchor: middle" x="841.2" y="227.151302" transform="rotate(-0 841.2 227.151302)">测试目的与方案</text>
   </g>
   <g id="text_32">
    <text style="font-size: 10px; font-family: 'SimHei'; text-anchor: middle" x="841.2" y="273.570833" transform="rotate(-0 841.2 273.570833)">测试环境与参数</text>
   </g>
   <g id="text_33">
    <text style="font-size: 10px; font-family: 'SimHei'; text-anchor: middle" x="841.2" y="319.91224" transform="rotate(-0 841.2 319.91224)">功能测试</text>
   </g>
   <g id="text_34">
    <text style="font-size: 10px; font-family: 'SimHei'; text-anchor: middle" x="841.2" y="366.370833" transform="rotate(-0 841.2 366.370833)">精度与稳定性测试</text>
   </g>
   <g id="text_35">
    <text style="font-size: 10px; font-family: 'SimHei'; text-anchor: middle" x="985.76" y="227.131771" transform="rotate(-0 985.76 227.131771)">研究总结</text>
   </g>
   <g id="text_36">
    <text style="font-size: 10px; font-family: 'SimHei'; text-anchor: middle" x="985.76" y="273.492708" transform="rotate(-0 985.76 273.492708)">不足与展望</text>
   </g>
  </g>
 </g>
 <defs>
  <clipPath id="p80b88f4b0e">
   <rect x="7.2" y="7.2" width="1112" height="464"/>
  </clipPath>
 </defs>
</svg>
