<?xml version="1.0" encoding="UTF-8"?>
<svg width="900" height="520" xmlns="http://www.w3.org/2000/svg">
  <!-- 表现层 -->
  <rect x="10" y="10" width="880" height="130" fill="#ffffff" stroke="#000000" stroke-width="1"/>
  <text x="450" y="40" font-family="Microsoft YaHei, SimHei, sans-serif" font-size="18" font-weight="bold" text-anchor="middle">表现层</text>

  <rect x="30" y="60" width="170" height="60" rx="8" ry="8" fill="#ffffff" stroke="#000000" stroke-width="1"/>
  <text x="115" y="95" font-family="Microsoft YaHei, SimHei, sans-serif" font-size="16" text-anchor="middle">VSCode 界面集成</text>

  <rect x="230" y="60" width="170" height="60" rx="8" ry="8" fill="#ffffff" stroke="#000000" stroke-width="1"/>
  <text x="315" y="95" font-family="Microsoft YaHei, SimHei, sans-serif" font-size="16" text-anchor="middle">状态栏展示</text>

  <rect x="430" y="60" width="170" height="60" rx="8" ry="8" fill="#ffffff" stroke="#000000" stroke-width="1"/>
  <text x="515" y="95" font-family="Microsoft YaHei, SimHei, sans-serif" font-size="16" text-anchor="middle">错误提示面板</text>

  <rect x="630" y="60" width="170" height="60" rx="8" ry="8" fill="#ffffff" stroke="#000000" stroke-width="1"/>
  <text x="715" y="95" font-family="Microsoft YaHei, SimHei, sans-serif" font-size="16" text-anchor="middle">命令与菜单</text>

  <!-- 业务层 -->
  <rect x="10" y="160" width="880" height="200" fill="#ffffff" stroke="#000000" stroke-width="1"/>
  <text x="450" y="195" font-family="Microsoft YaHei, SimHei, sans-serif" font-size="18" font-weight="bold" text-anchor="middle">业务层</text>

  <rect x="100" y="220" width="170" height="60" rx="8" ry="8" fill="#ffffff" stroke="#000000" stroke-width="1"/>
  <text x="185" y="255" font-family="Microsoft YaHei, SimHei, sans-serif" font-size="16" text-anchor="middle">代码智能补全</text>

  <rect x="320" y="220" width="170" height="60" rx="8" ry="8" fill="#ffffff" stroke="#000000" stroke-width="1"/>
  <text x="405" y="255" font-family="Microsoft YaHei, SimHei, sans-serif" font-size="16" text-anchor="middle">实时错误检测</text>

  <rect x="540" y="220" width="170" height="60" rx="8" ry="8" fill="#ffffff" stroke="#000000" stroke-width="1"/>
  <text x="625" y="255" font-family="Microsoft YaHei, SimHei, sans-serif" font-size="16" text-anchor="middle">多场景调试</text>

  <rect x="100" y="300" width="170" height="60" rx="8" ry="8" fill="#ffffff" stroke="#000000" stroke-width="1"/>
  <text x="185" y="335" font-family="Microsoft YaHei, SimHei, sans-serif" font-size="16" text-anchor="middle">环境打包部署</text>

  <rect x="320" y="300" width="170" height="60" rx="8" ry="8" fill="#ffffff" stroke="#000000" stroke-width="1"/>
  <text x="405" y="335" font-family="Microsoft YaHei, SimHei, sans-serif" font-size="16" text-anchor="middle">状态栏交互</text>

  <rect x="540" y="300" width="170" height="60" rx="8" ry="8" fill="#ffffff" stroke="#000000" stroke-width="1"/>
  <text x="625" y="335" font-family="Microsoft YaHei, SimHei, sans-serif" font-size="16" text-anchor="middle">API 加载器</text>

  <!-- 数据层 -->
  <rect x="10" y="380" width="880" height="130" fill="#ffffff" stroke="#000000" stroke-width="1"/>
  <text x="450" y="415" font-family="Microsoft YaHei, SimHei, sans-serif" font-size="18" font-weight="bold" text-anchor="middle">数据层</text>

  <rect x="230" y="440" width="170" height="60" rx="8" ry="8" fill="#ffffff" stroke="#000000" stroke-width="1"/>
  <text x="315" y="475" font-family="Microsoft YaHei, SimHei, sans-serif" font-size="16" text-anchor="middle">API 定义文件</text>

  <rect x="500" y="440" width="170" height="60" rx="8" ry="8" fill="#ffffff" stroke="#000000" stroke-width="1"/>
  <text x="585" y="475" font-family="Microsoft YaHei, SimHei, sans-serif" font-size="16" text-anchor="middle">调试模板文件</text>
</svg>
  
  <rect class="module-box" x="500" y="440" width="170" height="60" rx="8" ry="8"/>
  <text class="module-text" x="585" y="475">调试模板文件</text>
</svg>
