<svg width="2098" height="1692" xmlns="http://www.w3.org/2000/svg" xmlns:xlink="http://www.w3.org/1999/xlink" xml:space="preserve" overflow="hidden"><g transform="translate(-1260 -359)"><rect x="1414.5" y="362.5" width="709" height="189" stroke="#000000" stroke-width="3.4375" stroke-linejoin="round" stroke-miterlimit="10" fill="none"/><text font-family="SimSun,SimSun_MSFontService,sans-serif" font-weight="400" font-size="64" transform="matrix(1 0 0 1 1446.5 445)">面向自动驾驶的视觉目</text><text font-family="SimSun,SimSun_MSFontService,sans-serif" font-weight="400" font-size="64" transform="matrix(1 0 0 1 1446.5 519)">标跟踪和意图分析算法</text><rect x="1414.5" y="622.5" width="709" height="133" stroke="#000000" stroke-width="3.4375" stroke-linejoin="round" stroke-miterlimit="10" fill="none"/><text font-family="SimSun,SimSun_MSFontService,sans-serif" font-weight="400" font-size="83" transform="matrix(1 0 0 1 1479.5 720)">研究背景及意义</text><rect x="1414.5" y="837.5" width="709" height="133" stroke="#000000" stroke-width="3.4375" stroke-linejoin="round" stroke-miterlimit="10" fill="none"/><text font-family="SimSun,SimSun_MSFontService,sans-serif" font-weight="400" font-size="83" transform="matrix(1 0 0 1 1479.5 935)">国内外研究综述</text><rect x="1338.5" y="1154.5" width="346" height="134" stroke="#000000" stroke-width="3.4375" stroke-linejoin="round" stroke-miterlimit="10" fill="none"/><text font-family="Times New Roman,Times New Roman_MSFontService,sans-serif" font-weight="400" font-size="83" transform="matrix(1 0 0 1 1396.54 1251)">YOLO</text><rect x="1772.5" y="1154.5" width="460" height="134" stroke="#000000" stroke-width="3.4375" stroke-linejoin="round" stroke-miterlimit="10" fill="none"/><text font-family="Times New Roman,Times New Roman_MSFontService,sans-serif" font-weight="400" font-size="83" transform="matrix(1 0 0 1 1811.97 1251)">DeepSORT</text><rect x="1489.5" y="1471.5" width="567" height="134" stroke="#000000" stroke-width="3.4375" stroke-linejoin="round" stroke-miterlimit="10" fill="none"/><text font-family="SimSun,SimSun_MSFontService,sans-serif" font-weight="400" font-size="83" transform="matrix(1 0 0 1 1524.87 1569)">视觉识别结果</text><rect x="1262.5" y="1104.5" width="1021" height="240" stroke="#172C51" stroke-width="4.58333" stroke-miterlimit="8" fill="none"/><rect x="1489.5" y="1687.5" width="567" height="134" stroke="#000000" stroke-width="3.4375" stroke-linejoin="round" stroke-miterlimit="10" fill="none"/><text font-family="SimSun,SimSun_MSFontService,sans-serif" font-weight="400" font-size="83" transform="matrix(1 0 0 1 1524.87 1785)">意图预测分析</text><rect x="1489.5" y="1890.5" width="567" height="133" stroke="#000000" stroke-width="3.4375" stroke-linejoin="round" stroke-miterlimit="10" fill="none"/><text font-family="SimSun,SimSun_MSFontService,sans-serif" font-weight="400" font-size="83" transform="matrix(1 0 0 1 1524.87 1987)">危险程度评估</text><rect x="2736.5" y="491.5" width="567" height="133" stroke="#000000" stroke-width="3.4375" stroke-linejoin="round" stroke-miterlimit="10" fill="none"/><text font-family="SimSun,SimSun_MSFontService,sans-serif" font-weight="400" font-size="83" transform="matrix(1 0 0 1 2854.5 588)">研究问题</text><rect x="2736.5" y="720.5" width="567" height="234" stroke="#000000" stroke-width="3.4375" stroke-linejoin="round" stroke-miterlimit="10" fill="none"/><text font-family="SimSun,SimSun_MSFontService,sans-serif" font-weight="400" font-size="83" transform="matrix(1 0 0 1 2772 822)">文献综述与基</text><text font-family="SimSun,SimSun_MSFontService,sans-serif" font-weight="400" font-size="83" transform="matrix(1 0 0 1 2895.75 917)">础理论</text><rect x="2683.5" y="1044.5" width="673" height="134" stroke="#000000" stroke-width="3.4375" stroke-linejoin="round" stroke-miterlimit="10" fill="none"/><text font-family="SimSun,SimSun_MSFontService,sans-serif" font-weight="400" font-size="83" transform="matrix(1 0 0 1 2730.75 1142)">理论分析与研究</text><rect x="2736.5" y="1281.5" width="567" height="133" stroke="#000000" stroke-width="3.4375" stroke-linejoin="round" stroke-miterlimit="10" fill="none"/><text font-family="SimSun,SimSun_MSFontService,sans-serif" font-weight="400" font-size="83" transform="matrix(1 0 0 1 2854.5 1379)">算法设计</text><rect x="2736.5" y="1535.5" width="567" height="133" stroke="#000000" stroke-width="3.4375" stroke-linejoin="round" stroke-miterlimit="10" fill="none"/><text font-family="SimSun,SimSun_MSFontService,sans-serif" font-weight="400" font-size="83" transform="matrix(1 0 0 1 2854.5 1633)">实验仿真</text><rect x="2736.5" y="1788.5" width="567" height="133" stroke="#000000" stroke-width="3.4375" stroke-linejoin="round" stroke-miterlimit="10" fill="none"/><text font-family="SimSun,SimSun_MSFontService,sans-serif" font-weight="400" font-size="83" transform="matrix(1 0 0 1 2854.5 1885)">总结展望</text><path d="M1769.15 551 1769.15 599.1 1766.85 599.1 1766.85 551ZM1781.75 594.517 1768 622.017 1754.25 594.517Z" fill="#4472C4"/><path d="M1769.15 755 1769.15 813.772 1766.85 813.772 1766.85 755ZM1781.75 809.188 1768 836.688 1754.25 809.188Z" fill="#4472C4"/><path d="M1769.15 969.965 1772.56 1080.38 1770.27 1080.45 1766.85 970.036ZM1785.02 1075.41 1772.12 1103.32 1757.53 1076.26Z" fill="#4472C4"/><path d="M1773.15 1344 1773.15 1443.97 1770.85 1443.97 1770.85 1344ZM1785.75 1439.38 1772 1466.88 1758.25 1439.38Z" fill="#4472C4"/><path d="M1773.15 1605 1773.15 1665.01 1770.85 1665.01 1770.85 1605ZM1785.75 1660.43 1772 1687.93 1758.25 1660.43Z" fill="#4472C4"/><path d="M1773.15 1821 1773.15 1866.86 1770.85 1866.86 1770.85 1821ZM1785.75 1862.28 1772 1889.78 1758.25 1862.28Z" fill="#4472C4"/><path d="M3021.15 624 3021.15 697.413 3018.85 697.413 3018.85 624ZM3033.75 692.83 3020 720.33 3006.25 692.83Z" fill="#4472C4"/><path d="M3021.15 954 3021.15 1021.78 3018.85 1021.78 3018.85 954ZM3033.75 1017.2 3020 1044.7 3006.25 1017.2Z" fill="#4472C4"/><path d="M3021.15 1178 3021.15 1258.38 3018.85 1258.38 3018.85 1178ZM3033.75 1253.79 3020 1281.29 3006.25 1253.79Z" fill="#4472C4"/><path d="M3021.15 1414 3021.15 1511.78 3018.85 1511.78 3018.85 1414ZM3033.75 1507.19 3020 1534.69 3006.25 1507.19Z" fill="#4472C4"/><path d="M3021.15 1668 3021.15 1764.53 3018.85 1764.53 3018.85 1668ZM3033.75 1759.94 3020 1787.44 3006.25 1759.94Z" fill="#4472C4"/></g></svg>